<svg width="101" height="101" viewBox="0 0 101 101" fill="none" xmlns="http://www.w3.org/2000/svg">
<circle cx="50.0332" cy="50.79" r="50" fill="#80E2F7"/>
<g clip-path="url(#clip0)">
<path d="M87.0442 37.3247L89.7394 36.0309C90.5645 35.6348 90.7833 34.5669 90.1742 33.8837C88.0592 31.5115 83.1295 26.63 76.0669 23.603L78.0954 22.2507C79.0196 21.6344 78.8755 20.2317 77.8393 19.8316C71.5199 17.3919 53.7106 12.7041 40.3906 30.4639L82.0423 63.3468C86.2898 66.7002 92.5328 63.6747 92.5328 58.2631V53.2685C92.5328 42.8135 87.0442 37.3247 87.0442 37.3247Z" fill="#E6646E"/>
<path d="M88.4172 52.8659C86.1567 47.5296 85.2591 45.9423 83.0755 42.4899C79.6496 37.0738 70.5496 22.6865 57.2079 22.6865C55.482 22.6865 53.7312 22.9306 52.0041 23.412C49.701 24.054 47.5015 25.2639 45.4663 27.0082L41.0415 30.9754C41.0408 30.9759 41.041 30.9765 41.0415 30.977L80.2922 59.2795C85.6729 63.3961 90.5183 57.8261 88.4172 52.8659Z" fill="#DC4655"/>
<path d="M8.60178 9.98037L37.6462 42.8131L47.2514 31.8358L9.34171 9.09019C8.76746 8.74555 8.15802 9.47884 8.60178 9.98037Z" fill="#E6646E"/>
<path d="M91.992 69.2592C90.3689 64.3108 84.7325 50.2441 80.7556 43.9568C76.3127 36.9324 66.4621 22.2308 52.7404 26.0553C50.8246 26.5892 48.9835 27.6073 47.2518 29.0916L8.27397 64.0372C7.72479 64.5296 7.42912 65.2755 7.56675 66C7.8845 67.6741 8.86399 68.4522 9.90192 68.7919C10.3541 68.9398 10.7265 69.2518 10.9377 69.6779C11.4696 70.7519 12.4071 72.6446 12.4071 72.6446C13.0944 74.0456 14.8042 74.6008 16.1737 73.8527C16.6793 73.5766 17.233 73.2383 17.8014 72.8766L22.5913 75.7951C23.4121 76.2923 24.4238 76.3289 25.2743 75.8846C29.3799 73.7415 42.0103 67.458 51.3683 66.1401C53.3197 65.8652 55.133 65.3446 56.8118 64.6533L67.1147 91.6948C67.4599 92.6004 68.6097 92.8726 69.3241 92.2177L91.2365 72.1313C92.0313 71.4028 92.328 70.2839 91.992 69.2592Z" fill="#EDEBED"/>
<path d="M51.7969 14.0126V27.6974C51.7969 29.1917 52.9932 30.4669 54.6253 30.7126L57.8188 31.1932C60.004 31.5221 61.9635 29.8883 61.7522 27.8969C60.7918 18.8504 56.5799 14.7457 53.9519 13.0356C53.0505 12.449 51.7969 13.0092 51.7969 14.0126Z" fill="#DBD9DC"/>
<path d="M65.5714 63.9619C65.0385 63.0102 65.1328 61.8424 65.7849 60.968C66.5149 59.9894 67.1386 58.943 67.637 57.8348C69.6538 53.3512 69.6216 48.3148 67.5445 43.2696C67.2565 42.5688 66.4578 42.2351 65.7529 42.5232C65.0521 42.8119 64.7184 43.6139 65.0065 44.3148C66.79 48.6443 66.8343 52.9304 65.1338 56.7092C63.5857 60.1512 60.6361 62.9481 56.8066 64.6406L67.1142 91.6949C67.4594 92.6006 68.6092 92.8727 69.3237 92.2178L77.2999 84.9063L65.5714 63.9619Z" fill="#DBD9DC"/>
<path d="M13.7474 66.5117C13.3343 65.672 11.9783 65.6074 11.0602 66.8832C10.612 67.5061 10.2187 68.0933 8.97656 68.3304C9.26327 68.5289 9.5699 68.6808 9.885 68.7852C10.2267 68.8985 10.4976 69.1305 10.7136 69.4103C13.3471 69.1988 14.2215 67.4755 13.7474 66.5117Z" fill="#9C969E"/>
<path d="M20.5107 74.5423C22.8535 73.0694 25.4736 71.1164 27.6134 68.9567C28.1471 68.4186 28.1428 67.5497 27.6054 67.0163C27.0657 66.4812 26.1977 66.4869 25.6643 67.0249C23.2915 69.4189 20.0087 71.4572 17.7734 72.8941L20.5107 74.5423Z" fill="#C0BCC1"/>
<path d="M47.2513 45.5742C45.2895 45.5742 43.4563 44.941 42.2208 43.8361C41.6554 43.331 41.6071 42.464 42.1109 41.8986C42.6174 41.3338 43.4857 41.2861 44.0485 41.79C44.7775 42.4413 45.9741 42.8299 47.2511 42.8299C48.5281 42.8299 49.7247 42.4413 50.4537 41.79C51.0165 41.2861 51.8848 41.3338 52.3913 41.8986C52.8951 42.464 52.8468 43.3311 52.2814 43.8361C51.0461 44.941 49.2129 45.5742 47.2513 45.5742Z" fill="#4B3F4E"/>
<path d="M28.041 31.9553L34.9018 39.7111V24.4263L28.041 20.3098V31.9553Z" fill="#00C3FF"/>
<path d="M21.1807 24.1994L28.0416 31.9551V20.3096L21.1807 16.1931V24.1994Z" fill="#D4F582"/>
<path d="M14.3193 16.4437L21.1801 24.1995V16.1932L14.3193 12.0767V16.4437Z" fill="#FFC850"/>
<path d="M14.3194 12.0766L9.34171 9.09013C8.76746 8.74565 8.15802 9.47878 8.60178 9.98047L14.3192 16.4438V12.0766H14.3194Z" fill="#E6646E"/>
</g>
<defs>
<clipPath id="clip0">
<rect width="85" height="85" fill="white" transform="translate(7.5332 8.29004)"/>
</clipPath>
</defs>
</svg>
