<svg width="100" height="101" viewBox="0 0 100 101" fill="none" xmlns="http://www.w3.org/2000/svg">
<circle cx="50" cy="50.7935" r="50" fill="#CA6EF5"/>
<g clip-path="url(#clip0)">
<path d="M81.2745 8.91451C83.0722 7.45391 85.76 8.73322 85.76 11.0493V47.9064L55.502 30.0267L81.2745 8.91451Z" fill="#FFC850"/>
<path d="M83.0082 46.281L64.585 35.3947L79.9351 18.0891C81.0084 16.8792 83.0082 17.6382 83.0082 19.2557V46.281Z" fill="#EBAF4B"/>
<path d="M18.7256 8.91451C16.9279 7.45391 14.2402 8.73322 14.2402 11.0493V47.9064L44.4982 30.0267L18.7256 8.91451Z" fill="#FFC850"/>
<path d="M16.9912 46.281L35.4145 35.3947L20.0643 18.0891C18.991 16.8792 16.9912 17.6382 16.9912 19.2557V46.281Z" fill="#EBAF4B"/>
<path d="M49.9999 93.2936C71.2687 93.2936 88.5106 76.9756 88.5106 56.8465C88.5106 36.7173 71.2687 20.3994 49.9999 20.3994C28.7311 20.3994 11.4893 36.7173 11.4893 56.8465C11.4893 76.9756 28.7311 93.2936 49.9999 93.2936Z" fill="#FFDC64"/>
<path d="M55.5009 79.54V82.2907C55.5009 85.3292 53.0379 87.7922 49.9995 87.7922C46.9611 87.7922 44.498 85.3292 44.498 82.2907V79.54L49.9995 76.7893L55.5009 79.54Z" fill="#FF8087"/>
<path d="M53.0373 65.3799H46.9631C45.6517 65.3799 44.9256 66.9001 45.75 67.9199L48.7873 71.6775C49.4115 72.4497 50.5889 72.4497 51.2132 71.6775L54.2505 67.9199C55.0748 66.9001 54.3488 65.3799 53.0373 65.3799Z" fill="#5D5360"/>
<path d="M87.1328 80.9152C86.9193 80.9152 86.7024 80.8656 86.4995 80.7602C78.1834 76.436 65.168 73.8665 65.037 73.841C64.2916 73.6959 63.8053 72.9734 63.9504 72.2278C64.0962 71.4817 64.8114 70.9948 65.5636 71.1412C66.1116 71.248 79.0963 73.8101 87.7688 78.3196C88.4424 78.6702 88.705 79.5001 88.3544 80.1745C88.1093 80.6453 87.6299 80.9152 87.1328 80.9152Z" fill="#E1A546"/>
<path d="M89.8857 71.2883C89.7675 71.2883 89.6473 71.2729 89.5278 71.2407C81.8188 69.1683 67.8013 69.5617 67.663 69.5677C66.8907 69.59 66.2688 68.9935 66.2467 68.2346C66.2238 67.4751 66.821 66.8411 67.5798 66.8183C68.1709 66.7996 82.1454 66.4073 90.2425 68.5839C90.9758 68.7813 91.4104 69.5355 91.2135 70.2695C91.0481 70.8834 90.4928 71.2876 89.8857 71.2883Z" fill="#E1A546"/>
<path d="M59.627 90.5428C38.3584 90.5428 21.1168 74.225 21.1168 54.0957C21.1168 39.3145 30.4194 26.5979 43.781 20.8792C25.4704 23.6934 11.4893 38.7217 11.4893 56.8464C11.4893 76.9757 28.7308 93.2935 49.9994 93.2935C55.6501 93.2935 61.0109 92.1322 65.8454 90.063C63.8204 90.3743 61.7448 90.5428 59.627 90.5428Z" fill="#FFC850"/>
<path d="M12.8662 80.9152C12.3694 80.9152 11.8897 80.6459 11.6447 80.1744C11.2941 79.5002 11.5567 78.6701 12.2302 78.3195C20.9029 73.81 33.8875 71.2479 34.4355 71.1412C35.1816 70.9914 35.9029 71.4823 36.0487 72.2277C36.1938 72.9731 35.7075 73.6958 34.9621 73.8409C34.8311 73.8665 21.8155 76.4359 13.4996 80.7601C13.2967 80.8655 13.0799 80.9152 12.8662 80.9152Z" fill="#E1A546"/>
<path d="M10.1132 71.2883C9.50612 71.2883 8.9508 70.8834 8.78561 70.2694C8.58888 69.5355 9.02335 68.7813 9.75664 68.5839C17.8544 66.4066 31.8269 66.8015 32.4193 66.8183C33.1781 66.8412 33.7751 67.4751 33.7524 68.2346C33.7295 68.9934 33.072 69.5953 32.3361 69.5677C32.1951 69.563 18.1755 69.1681 10.4713 71.2406C10.3516 71.2728 10.2314 71.2883 10.1132 71.2883Z" fill="#E1A546"/>
<path d="M34.1829 61.6603C31.5353 61.6603 29.3691 59.4941 29.3691 56.8465V54.0958C29.3691 51.4482 31.5353 49.282 34.1829 49.282C36.8305 49.282 38.9967 51.4482 38.9967 54.0958V56.8465C38.9967 59.4939 36.8305 61.6603 34.1829 61.6603Z" fill="#4B3F4E"/>
<path d="M34.1828 49.282C33.9473 49.282 33.7216 49.3187 33.4951 49.3519V56.1588C33.4951 57.678 34.7266 58.9095 36.2458 58.9095C37.765 58.9095 38.9965 57.678 38.9965 56.1588V54.0958C38.9965 51.4481 36.8302 49.282 34.1828 49.282Z" fill="#5D5360"/>
<path d="M34.1842 54.7839C35.3236 54.7839 36.2472 53.8602 36.2472 52.7208C36.2472 51.5814 35.3236 50.6577 34.1842 50.6577C33.0448 50.6577 32.1211 51.5814 32.1211 52.7208C32.1211 53.8602 33.0448 54.7839 34.1842 54.7839Z" fill="white"/>
<path d="M65.8157 61.6603C63.1681 61.6603 61.002 59.4941 61.002 56.8465V54.0958C61.002 51.4482 63.1681 49.282 65.8157 49.282C68.4634 49.282 70.6295 51.4482 70.6295 54.0958V56.8465C70.6295 59.4939 68.4634 61.6603 65.8157 61.6603Z" fill="#4B3F4E"/>
<path d="M65.8165 49.282C65.5811 49.282 65.3554 49.3187 65.1289 49.3519V56.1588C65.1289 57.678 66.3604 58.9095 67.8796 58.9095C69.3988 58.9095 70.6303 57.678 70.6303 56.1588V54.0958C70.6303 51.4481 68.4642 49.282 65.8165 49.282Z" fill="#5D5360"/>
<path d="M65.816 54.7839C66.9554 54.7839 67.8791 53.8602 67.8791 52.7208C67.8791 51.5814 66.9554 50.6577 65.816 50.6577C64.6766 50.6577 63.7529 51.5814 63.7529 52.7208C63.7529 53.8602 64.6766 54.7839 65.816 54.7839Z" fill="white"/>
<path d="M51.0632 71.7362L48.026 65.724C47.9709 65.6147 47.94 65.4952 47.8983 65.3796H46.9622C45.6508 65.3796 44.9247 66.8998 45.7489 67.9197L48.7862 71.6773C49.3755 72.4061 50.4432 72.4219 51.0876 71.7747C51.0803 71.7606 51.0707 71.751 51.0632 71.7362Z" fill="#4B3F4E"/>
<path d="M49.9995 76.7893L44.498 79.54V82.2907C44.498 82.7272 44.5616 83.1464 44.6576 83.5534C46.0417 83.3818 47.3784 82.9809 48.624 82.3659V83.666C48.624 84.4255 49.2398 85.0415 49.9995 85.0415C50.7592 85.0415 51.3749 84.4257 51.3749 83.666V82.3661C52.6207 82.981 53.9575 83.382 55.3414 83.5534C55.4373 83.1464 55.5009 82.727 55.5009 82.2907V79.54L49.9995 76.7893Z" fill="#E6646E"/>
<path d="M56.8769 80.9151C54.9314 80.9151 53.0564 80.3369 51.456 79.2428C50.599 78.6573 49.4017 78.6573 48.5434 79.2428C46.9437 80.3369 45.0687 80.9151 43.1232 80.9151C40.7559 80.9151 38.4759 80.0394 36.703 78.4498C36.1376 77.9421 36.0906 77.0723 36.5976 76.5069C37.1046 75.9414 37.9724 75.8945 38.5405 76.4015C40.8499 78.4738 44.4644 78.7003 46.9915 76.9716C48.7913 75.7426 51.2096 75.7426 53.0081 76.9716C55.5358 78.6995 59.1508 78.4725 61.4604 76.4021C62.0252 75.8958 62.8941 75.9414 63.4026 76.5082C63.9096 77.0737 63.862 77.9434 63.2966 78.4504C61.5233 80.04 59.2441 80.9151 56.8769 80.9151Z" fill="#EBAF4B"/>
</g>
<defs>
<clipPath id="clip0">
<rect width="85" height="85" fill="white" transform="translate(7.5 8.29346)"/>
</clipPath>
</defs>
</svg>
