<svg width="101" height="101" viewBox="0 0 101 101" fill="none" xmlns="http://www.w3.org/2000/svg">
<circle cx="50.0332" cy="50.79" r="50" fill="#F3F27B"/>
<g clip-path="url(#clip0)">
<path d="M57.2882 88.1306H47.739L52.4674 78.5211C52.8312 77.7809 52.5264 76.886 51.7862 76.5215C51.0453 76.156 50.1511 76.4624 49.7865 77.2026L44.4092 88.1306H36.3774C35.5526 88.1306 34.8838 88.7994 34.8838 89.6242C34.8838 90.4489 35.5526 91.1178 36.3774 91.1178H57.2882C58.1129 91.1178 58.7818 90.4489 58.7818 89.6242C58.7818 88.7994 58.1131 88.1306 57.2882 88.1306Z" fill="#EBAF4B"/>
<path d="M57.2881 88.1311H53.7136L58.442 78.5216C58.8058 77.7814 58.501 76.8865 57.7608 76.5219C57.0176 76.1565 56.1257 76.4629 55.7611 77.2031L50.3838 88.1311H42.352C41.5272 88.1311 40.8584 88.7999 40.8584 89.6247C40.8584 90.4494 41.5272 91.1183 42.352 91.1183H57.2883C58.1131 91.1183 58.7819 90.4494 58.7819 89.6247C58.7817 88.7999 58.1131 88.1311 57.2881 88.1311Z" fill="#FFC850"/>
<path d="M5.64038 38.7023L12.9044 44.4491L13.9736 32.6274L6.01269 35.9745C4.8912 36.4459 4.68624 37.9475 5.64038 38.7023Z" fill="#FFC850"/>
<path d="M80.1128 52.9379C67.8683 51.7865 59.031 36.6013 53.7411 27.4529C50.2042 21.3363 45.4639 17.5577 38.4464 16.1883L42.85 10.463C42.85 10.463 15.467 9.96497 11.1811 38.8418C8.31079 64.2336 28.9148 80.6633 52.8075 80.6633C72.1921 80.6633 89.0019 69.1169 94.9265 53.1585C95.4292 51.8042 94.062 50.5154 92.7276 51.0688C89.9255 52.2305 85.5355 53.4478 80.1128 52.9379Z" fill="#00C3FF"/>
<path d="M64.3831 78.4228C40.4904 78.4228 19.8863 61.9931 22.7567 36.6013C25.1591 20.4153 34.8172 13.4606 42.8432 10.4719L42.85 10.463C42.85 10.463 15.467 9.96497 11.1811 38.8418C8.31079 64.2336 28.9148 80.6633 52.8075 80.6633C58.0296 80.6633 63.0645 79.8247 67.7505 78.2882C66.6364 78.3657 65.5165 78.4228 64.3831 78.4228Z" fill="#00AAF0"/>
<path d="M57.6734 33.1404C55.1958 29.9106 50.7668 28.9114 47.1904 30.8552L47.1405 30.8825C26.9286 41.8874 48.6451 79.8166 81.9232 50.5949C83.158 49.5105 82.3936 47.4667 80.7502 47.4664C75.4414 47.4655 66.8629 45.1195 57.6734 33.1404Z" fill="#00AAF0"/>
<path d="M77.3602 47.152C66.8973 56.9806 41.0487 62.6469 39.4552 41.833C37.7361 55.9728 56.4498 72.9874 81.9498 50.5709C83.1875 49.483 82.3844 47.4633 80.7366 47.4613C79.7236 47.4603 78.5919 47.3738 77.3602 47.152Z" fill="#0096DC"/>
<path d="M24.4291 38.841C21.9544 38.841 19.9482 36.8348 19.9482 34.3602V32.8666C19.9482 30.3919 21.9544 28.3857 24.4291 28.3857C26.9037 28.3857 28.9099 30.3919 28.9099 32.8666V34.3602C28.9099 36.8348 26.9037 38.841 24.4291 38.841Z" fill="#4B3F4E"/>
<path d="M24.4287 28.3857V33.6135C24.4287 34.8508 25.4317 35.854 26.6692 35.854C27.9067 35.854 28.9097 34.851 28.9097 33.6135V32.8666C28.9096 30.3918 26.9034 28.3857 24.4287 28.3857Z" fill="#5D5360"/>
<path d="M24.4292 32.8671C25.2541 32.8671 25.9228 32.1984 25.9228 31.3735C25.9228 30.5486 25.2541 29.8799 24.4292 29.8799C23.6043 29.8799 22.9355 30.5486 22.9355 31.3735C22.9355 32.1984 23.6043 32.8671 24.4292 32.8671Z" fill="white"/>
</g>
<defs>
<clipPath id="clip0">
<rect width="90" height="90" fill="white" transform="translate(5.0332 5.79004)"/>
</clipPath>
</defs>
</svg>
