<svg width="101" height="101" viewBox="0 0 101 101" fill="none" xmlns="http://www.w3.org/2000/svg">
<circle cx="50.0332" cy="50.79" r="50" fill="#25BC77"/>
<g clip-path="url(#clip0)">
<path d="M80.1944 19.3302H66.4846C61.515 21.301 60.4133 17.9592 50.0332 17.9592C39.653 17.9592 38.5514 21.301 33.5815 19.3302H19.8719L18.0439 53.7759C19.1865 67.3142 27.5835 74.6831 34.21 77.3679H65.8564C72.4828 74.6831 80.88 67.3142 82.0225 53.7759L80.1944 19.3302Z" fill="#F5DCB4"/>
<path d="M66.4854 19.3303C81.9217 23.9507 73.5183 47.7779 83.4576 58.0773C84.8845 59.5559 87.4056 58.8991 88.0011 56.9327C88.7881 54.3344 89.574 50.2238 89.449 44.3505C89.2776 36.2961 92.5337 35.7821 92.5337 35.7821C92.5337 35.7821 88.4208 16.5884 76.0821 16.5884C71.9692 16.5884 66.4854 19.3303 66.4854 19.3303Z" fill="#965A50"/>
<path d="M35.6382 54.9756C32.999 54.9756 30.8398 52.8164 30.8398 50.1772V47.4353C30.8398 44.7962 32.999 42.637 35.6382 42.637C38.2773 42.637 40.4365 44.7962 40.4365 47.4353V50.1772C40.4367 52.8165 38.2773 54.9756 35.6382 54.9756Z" fill="#4B3F4E"/>
<path d="M35.6376 42.6367C35.403 42.6367 35.1779 42.6734 34.9521 42.7063V49.4915C34.9521 51.0057 36.1798 52.2334 37.6941 52.2334C39.2085 52.2334 40.436 51.0057 40.436 49.4915V47.4352C40.4361 44.7963 38.2768 42.6367 35.6376 42.6367Z" fill="#5D5360"/>
<path d="M35.6375 48.1204C36.7732 48.1204 37.6939 47.1997 37.6939 46.064C37.6939 44.9283 36.7732 44.0076 35.6375 44.0076C34.5018 44.0076 33.5811 44.9283 33.5811 46.064C33.5811 47.1997 34.5018 48.1204 35.6375 48.1204Z" fill="white"/>
<path d="M64.4292 54.9756C61.7901 54.9756 59.6309 52.8164 59.6309 50.1772V47.4353C59.6309 44.7962 61.7901 42.637 64.4292 42.637C67.0684 42.637 69.2276 44.7962 69.2276 47.4353V50.1772C69.2276 52.8165 67.0682 54.9756 64.4292 54.9756Z" fill="#4B3F4E"/>
<path d="M64.4286 42.6367C64.1941 42.6367 63.9689 42.6734 63.7432 42.7063V49.4915C63.7432 51.0057 64.9709 52.2334 66.4851 52.2334C67.9995 52.2334 69.227 51.0057 69.227 49.4915V47.4352C69.227 44.7963 67.0676 42.6367 64.4286 42.6367Z" fill="#5D5360"/>
<path d="M64.4285 48.1204C65.5642 48.1204 66.4849 47.1997 66.4849 46.064C66.4849 44.9283 65.5642 44.0076 64.4285 44.0076C63.2928 44.0076 62.3721 44.9283 62.3721 46.064C62.3721 47.1997 63.2928 48.1204 64.4285 48.1204Z" fill="white"/>
<path d="M83.4576 58.0775C84.8845 59.556 87.4056 58.8993 88.0011 56.9326C88.4524 55.4425 88.8974 53.4363 89.1765 50.9041C86.4814 49.5607 84.1808 45.2745 82.7655 38.0098C80.1949 24.8143 76.5962 17.4453 66.4854 19.3303C81.9216 23.9506 73.5183 47.778 83.4576 58.0775Z" fill="#824641"/>
<path d="M34.2101 77.3681H40.7081C40.7081 77.3681 29.2975 69.7137 27.4124 56.1752C23.7453 29.838 30.7255 21.9581 36.763 19.9473C35.8066 19.9797 34.8132 19.8188 33.5817 19.3306H19.8719L18.0439 53.7762C19.1865 67.3144 27.5835 74.6833 34.2101 77.3681Z" fill="#E7C9A5"/>
<path d="M33.5816 19.3303C18.1453 23.9507 26.5488 47.7781 16.6093 58.0773C15.1824 59.5559 12.6613 58.8991 12.0658 56.9327C11.2788 54.3344 10.4929 50.2238 10.6179 44.3505C10.7893 36.2961 7.5332 35.7821 7.5332 35.7821C7.5332 35.7821 11.6461 16.5884 23.9849 16.5884C28.0977 16.5884 33.5816 19.3303 33.5816 19.3303Z" fill="#965A50"/>
<path d="M33.1227 19.112C31.7315 18.4665 27.3925 16.5884 23.9849 16.5884C11.6461 16.5884 7.5332 35.7821 7.5332 35.7821C7.5332 35.7821 10.7893 36.2963 10.6179 44.3507C10.6156 44.4583 10.6188 44.555 10.6171 44.6615C18.5063 14.731 30.6291 18.0609 33.1227 19.112Z" fill="#824641"/>
<path d="M50.033 89.2497C58.3619 89.2497 65.1139 84.3396 65.1139 78.2827C65.1139 72.2258 58.3619 67.3157 50.033 67.3157C41.7041 67.3157 34.9521 72.2258 34.9521 78.2827C34.9521 84.3396 41.7041 89.2497 50.033 89.2497Z" fill="#BC8E78"/>
<path d="M43.1787 78.2817V85.1365C43.1787 88.9223 46.2477 91.9913 50.0335 91.9913C53.8193 91.9913 56.8883 88.9223 56.8883 85.1365V78.2817H43.1787Z" fill="#FF8087"/>
<path d="M43.1787 83.6362C45.1611 83.3879 47.0316 82.7847 48.6625 81.8728V83.7657C48.6625 84.5228 49.2765 85.1367 50.0335 85.1367C50.7905 85.1367 51.4044 84.5228 51.4044 83.7657V81.8554C53.0196 82.7771 54.8951 83.3869 56.8883 83.6367V78.2817H43.1787V83.6362Z" fill="#E6646E"/>
<path d="M58.9445 65.9434H41.122C35.4433 65.9434 30.8398 69.3193 30.8398 73.4836C30.8398 77.648 35.4435 81.0239 41.122 81.0239C43.9816 81.0239 46.5643 80.1658 48.4259 78.783C48.8972 78.433 49.4655 78.2581 50.0327 78.2581C50.601 78.2581 51.1693 78.4329 51.6406 78.783C53.5021 80.1658 56.0848 81.0239 58.9445 81.0239C64.6232 81.0239 69.2266 77.648 69.2266 73.4836C69.2268 69.3193 64.6232 65.9434 58.9445 65.9434Z" fill="#D4AF91"/>
<path d="M50.0327 60.4592C54.5757 60.4592 58.2584 62.9144 58.2584 65.9431C58.2584 68.8639 54.8013 70.4019 52.3063 71.5391C50.86 72.1984 49.2051 72.1984 47.7588 71.5391C45.2637 70.4019 41.8066 68.8639 41.8066 65.9431C41.807 62.9146 45.4897 60.4592 50.0327 60.4592Z" fill="#5D5360"/>
<path d="M45.8777 64.4438C45.6859 62.7184 46.9013 60.8733 46.9013 60.8733C43.9125 61.6949 41.8076 63.6542 41.8076 65.9432C41.8076 68.8639 45.2647 70.4019 47.7598 71.5393C49.2059 72.1984 50.8609 72.1984 52.3073 71.5393C52.8438 71.2947 53.4249 71.0298 54.0065 70.7384C50.6332 70.1419 46.2631 67.9142 45.8777 64.4438Z" fill="#4B3F4E"/>
</g>
<defs>
<clipPath id="clip0">
<rect width="85" height="85" fill="white" transform="translate(7.5332 11.79)"/>
</clipPath>
</defs>
</svg>
