<svg width="101" height="101" viewBox="0 0 101 101" fill="none" xmlns="http://www.w3.org/2000/svg">
<circle cx="50.0332" cy="50.79" r="50" fill="#6E97F5"/>
<g clip-path="url(#clip0)">
<path d="M88.3741 34.765L89.9838 33.0705C90.3861 32.647 90.4185 31.9958 90.049 31.5431C88.3624 29.4761 83.4016 23.9778 76.8721 21.9312L78.2031 19.6851C78.5357 19.124 78.3405 18.3857 77.7703 18.0689C60.3475 8.38917 46.5867 14.2211 41.1606 17.6342C40.4814 18.0615 40.4355 19.0275 41.0636 19.5269L43.3649 21.356C39.8018 23.7314 36.8273 26.3955 35.0009 28.1655C34.2493 28.8939 34.7618 30.1641 35.8086 30.1641H65.4913L90.486 62.1247C91.9757 64.0297 95.0329 62.9762 95.0329 60.5578V46.5199C95.0329 44.9236 94.6008 43.3444 93.7641 41.9849C90.8351 37.226 88.3741 34.765 88.3741 34.765Z" fill="#5D5360"/>
<path d="M84.843 39.7431L83.2602 37.7404C82.7529 37.0985 81.7587 37.1677 81.3453 37.8739L80.3662 39.5462C77.412 32.4837 70.1135 18.955 57.5634 18.9548C55.7562 18.9548 53.9 19.2435 52.0469 19.8128C49.5318 20.5854 47.2273 21.8593 45.1975 23.599L37.875 30.1639H65.4919L90.4866 62.1245C91.8941 63.9245 94.669 63.0663 94.9743 60.9281C92.3996 53.8308 88.5759 44.4664 84.843 39.7431Z" fill="#4B3F4E"/>
<path d="M94.46 68.3361C92.7414 63.0966 87.4468 47.7254 82.5627 41.5452L81.0312 44.1617C80.5286 45.0203 79.2468 44.8984 78.9307 43.9554C76.4793 36.6395 67.9922 17.9546 52.8996 22.5909C50.8866 23.2093 48.9217 24.2341 47.0881 25.8057L5.81755 62.8069C5.23606 63.3283 4.923 64.118 5.06872 64.8852C5.40464 66.6549 6.43894 67.4792 7.53617 67.8395C8.01798 67.9979 8.41525 68.3298 8.64043 68.7843C9.20416 69.9224 10.1938 71.9205 10.1938 71.9205C10.9215 73.4039 12.7319 73.9917 14.1819 73.1996C14.7174 72.9073 15.3036 72.5491 15.9055 72.166L20.9771 75.2563C21.8462 75.7827 22.9174 75.8212 23.8179 75.351C28.165 73.0819 41.5383 66.4289 51.4468 65.0333C53.5129 64.7423 55.433 64.191 57.2105 63.459L68.1195 92.0912C68.4849 93.0501 69.7024 93.3384 70.4588 92.6449L93.6602 71.3769C94.5017 70.6056 94.8158 69.4209 94.46 68.3361Z" fill="#C0826C"/>
<path d="M30.6224 56.5581C25.8301 55.8459 21.9047 54.3035 20.6398 49.5181L5.81769 62.807C5.23655 63.328 4.92296 64.1174 5.06868 64.8844C5.40355 66.648 6.43152 67.4719 7.52418 67.8343C8.00037 67.9922 8.39482 68.326 8.6193 68.7744L10.1939 71.9204C10.9217 73.4038 12.7321 73.9916 14.1821 73.1996C14.7085 72.9122 15.2846 72.5601 15.8757 72.1846L20.9771 75.2562C21.8435 75.7809 22.9212 75.819 23.8193 75.3502C26.5404 73.9297 32.7956 70.7935 39.524 68.303C41.6884 62.2454 37.2536 57.5439 30.6224 56.5581Z" fill="#F5DCB4"/>
<path d="M51.9014 9.83964V24.3295C51.9014 25.9117 53.168 27.2619 54.8962 27.522L58.2773 28.0309C60.5911 28.3792 62.6659 26.6493 62.4421 24.5408C61.4252 14.9621 56.9656 10.6159 54.183 8.80516C53.2287 8.18413 51.9014 8.77739 51.9014 9.83964Z" fill="#AF6E5A"/>
<path d="M47.0882 46.1458C44.681 46.1458 42.7295 44.1944 42.7295 41.7871V40.3343C42.7295 37.9271 44.6808 35.9756 47.0882 35.9756C49.4953 35.9756 51.4468 37.9269 51.4468 40.3343V41.7871C51.4467 44.1944 49.4953 46.1458 47.0882 46.1458Z" fill="#4B3F4E"/>
<path d="M47.0879 35.9758V41.0608C47.0879 42.2644 48.0637 43.2402 49.2672 43.2402C50.4708 43.2402 51.4466 42.2644 51.4466 41.0608V40.3343C51.4464 37.9272 49.495 35.9758 47.0879 35.9758Z" fill="#5D5360"/>
<path d="M47.0886 40.3337C47.891 40.3337 48.5414 39.6832 48.5414 38.8808C48.5414 38.0784 47.891 37.428 47.0886 37.428C46.2862 37.428 45.6357 38.0784 45.6357 38.8808C45.6357 39.6832 46.2862 40.3337 47.0886 40.3337Z" fill="white"/>
<path d="M66.4864 62.7272C65.9222 61.7195 66.022 60.483 66.7125 59.5572C67.4854 58.5209 68.1456 57.413 68.6735 56.2396C70.8089 51.4923 70.7748 46.1596 68.5756 40.8176C68.2706 40.0757 67.4249 39.7223 66.6786 40.0273C65.9366 40.333 65.5833 41.1822 65.8883 41.9243C67.7767 46.5086 67.8236 51.0467 66.0231 55.0478C64.3839 58.6923 61.2608 61.6537 57.2061 63.4456L68.12 92.0914C68.4854 93.0504 69.7029 93.3385 70.4595 92.6451L78.9049 84.9035L66.4864 62.7272Z" fill="#AF6E5A"/>
<path d="M11.6139 65.4268C11.1766 64.5377 9.74081 64.4693 8.76873 65.8202C8.29412 66.4797 7.8777 67.1015 6.5625 67.3525C6.86607 67.5627 7.19074 67.7236 7.5242 67.8341C7.88596 67.954 8.17284 68.1998 8.40153 68.496C11.1901 68.272 12.1158 66.4476 11.6139 65.4268Z" fill="#965A50"/>
<path d="M18.7743 73.9296C21.2549 72.37 24.0291 70.3021 26.2947 68.0154C26.8597 67.4457 26.8553 66.5256 26.2863 65.9608C25.7148 65.3943 24.7958 65.4003 24.2311 65.97C21.7186 68.5048 18.2427 70.663 15.876 72.1844L18.7743 73.9296Z" fill="#965A50"/>
</g>
<defs>
<clipPath id="clip0">
<rect width="90" height="90" fill="white" transform="translate(5.0332 5.79004)"/>
</clipPath>
</defs>
</svg>
