<svg width="101" height="101" viewBox="0 0 101 101" fill="none" xmlns="http://www.w3.org/2000/svg">
<g clip-path="url(#clip0)">
<path d="M50.6016 100.329C78.2158 100.329 100.602 77.9429 100.602 50.3286C100.602 22.7144 78.2158 0.328613 50.6016 0.328613C22.9873 0.328613 0.601562 22.7144 0.601562 50.3286C0.601562 77.9429 22.9873 100.329 50.6016 100.329Z" fill="#F3F27B"/>
<path d="M46.983 56.622L39.5557 35.4591H53.2693L54.3584 33.2071L53.2693 31.4349H38.1432L36.0209 25.3882L32.2236 26.7208L34.5359 33.3089L19.9785 62.4054H47.0375L53.2693 55.8501L54.3584 51.7349L53.2693 50.0093L46.983 56.622ZM36.3912 38.595L43.3354 58.3809H26.492L36.3912 38.595Z" fill="#FF6426"/>
<path d="M46.1748 64.8196C48.6196 64.8196 50.6016 62.8377 50.6016 60.3928C50.6016 57.948 48.6196 55.9661 46.1748 55.9661C43.73 55.9661 41.748 57.948 41.748 60.3928C41.748 62.8377 43.73 64.8196 46.1748 64.8196Z" fill="#FFCC00"/>
<path d="M44.665 60.3928H47.6832V69.8026H44.665V60.3928Z" fill="#8E562F"/>
<path d="M41.6377 69.4138H50.7111V72.432H41.6377V69.4138Z" fill="#8E562F"/>
<path d="M23.2354 64.8196C25.6802 64.8196 27.6621 62.8377 27.6621 60.3928C27.6621 57.948 25.6802 55.9661 23.2354 55.9661C20.7905 55.9661 18.8086 57.948 18.8086 60.3928C18.8086 62.8377 20.7905 64.8196 23.2354 64.8196Z" fill="#525264"/>
<path d="M79.8857 60.5976L67.9051 26.4608C67.8939 26.4294 67.8603 26.3333 67.9385 26.2231C68.0168 26.1128 68.1187 26.1128 68.1521 26.1128H77.9871L78.9934 24.0501L77.9871 22.0884H68.1521C66.7648 22.0884 65.4576 22.7642 64.6553 23.896C63.8531 25.0278 63.6484 26.4849 64.108 27.7938L65.3859 31.4349H53.2697V35.4593H66.7982L66.8801 35.6927L53.2695 50.0095V55.8503L68.3771 39.9585L76.0885 61.9304L79.8857 60.5976Z" fill="#FF4C04"/>
<path d="M77.9873 64.8196C80.4321 64.8196 82.4141 62.8377 82.4141 60.3928C82.4141 57.948 80.4321 55.9661 77.9873 55.9661C75.5425 55.9661 73.5605 57.948 73.5605 60.3928C73.5605 62.8377 75.5425 64.8196 77.9873 64.8196Z" fill="#454553"/>
<path d="M77.9873 37.884V33.8596C80.1232 33.8596 81.8609 32.1219 81.8609 29.986C81.8609 27.8502 80.1232 26.1126 77.9873 26.1126V22.0881C82.3422 22.0881 85.8854 25.6311 85.8854 29.986C85.8854 34.3409 82.3422 37.884 77.9873 37.884Z" fill="#7974D6"/>
<path d="M35.9349 28.2217H26.7939L25.6781 24.5322C25.2318 23.0564 26.3363 21.5684 27.8781 21.5684H44.8193C46.0724 21.5684 47.0882 22.5842 47.0882 23.8373C47.0882 25.0904 46.0724 26.1062 44.8193 26.1062H39.0388L35.9349 28.2217Z" fill="#918EDD"/>
<path d="M23.2359 74.3259C15.5531 74.3259 9.30273 68.0755 9.30273 60.3927C9.30273 52.7099 15.5531 46.4597 23.2359 46.4597C30.9188 46.4597 37.1691 52.7099 37.1691 60.3927C37.1691 68.0755 30.9186 74.3259 23.2359 74.3259ZM23.2359 49.6933C17.3361 49.6933 12.5363 54.4931 12.5363 60.3927C12.5363 66.2925 17.3361 71.0923 23.2359 71.0923C29.1357 71.0923 33.9356 66.2925 33.9356 60.3927C33.9356 54.4931 29.1357 49.6933 23.2359 49.6933Z" fill="#EBF3FF"/>
<path d="M77.9869 74.3259C70.3041 74.3259 64.0537 68.0755 64.0537 60.3927C64.0537 52.7099 70.3041 46.4597 77.9869 46.4597C85.6697 46.4597 91.9201 52.7099 91.9201 60.3927C91.9201 68.0755 85.6697 74.3259 77.9869 74.3259ZM77.9869 49.6933C72.0871 49.6933 67.2873 54.4931 67.2873 60.3927C67.2873 66.2925 72.0871 71.0923 77.9869 71.0923C83.8867 71.0923 88.6865 66.2925 88.6865 60.3927C88.6865 54.4931 83.8867 49.6933 77.9869 49.6933Z" fill="#D7E8FF"/>
<path d="M23.2354 77.7337C13.6736 77.7337 5.89453 69.9546 5.89453 60.3929C5.89453 50.8312 13.6736 43.0522 23.2354 43.0522C32.7971 43.0522 40.5762 50.8312 40.5762 60.3929C40.5762 69.9546 32.7971 77.7337 23.2354 77.7337ZM23.2354 47.0765C15.8926 47.0765 9.91875 53.0501 9.91875 60.3929C9.91875 67.7356 15.8926 73.7095 23.2354 73.7095C30.5781 73.7095 36.552 67.7356 36.552 60.3929C36.552 53.0501 30.5781 47.0765 23.2354 47.0765Z" fill="#525264"/>
<path d="M77.9873 77.7337C68.4256 77.7337 60.6465 69.9546 60.6465 60.3929C60.6465 50.8312 68.4254 43.0522 77.9873 43.0522C87.5492 43.0522 95.3281 50.8312 95.3281 60.3929C95.3281 69.9546 87.549 77.7337 77.9873 77.7337ZM77.9873 47.0765C70.6447 47.0765 64.6709 53.0501 64.6709 60.3929C64.6709 67.7356 70.6447 73.7095 77.9873 73.7095C85.3301 73.7095 91.3039 67.7356 91.3039 60.3929C91.3039 53.0501 85.3301 47.0765 77.9873 47.0765Z" fill="#454553"/>
</g>
<defs>
<clipPath id="clip0">
<rect width="100" height="100" fill="white" transform="translate(0.601562 0.328613)"/>
</clipPath>
</defs>
</svg>
