<svg width="101" height="102" viewBox="0 0 101 102" fill="none" xmlns="http://www.w3.org/2000/svg">
<g clip-path="url(#clip0)">
<path d="M50.6016 101.329C78.2158 101.329 100.602 78.7808 100.602 50.9666C100.602 23.1524 78.2158 0.604492 50.6016 0.604492C22.9873 0.604492 0.601562 23.1524 0.601562 50.9666C0.601562 78.7808 22.9873 101.329 50.6016 101.329Z" fill="#00ED89"/>
<path d="M67.508 52.0315L50.6021 21.9104L38.065 14.7346C30.142 17.5157 23.4119 22.8581 18.851 29.7781L20.5115 42.9716L12.5518 52.566C12.8875 60.8089 15.8043 68.3803 20.5115 74.4824L32.9414 76.1506L39.3309 87.6198C42.8928 88.7299 46.6779 89.3284 50.6021 89.3284L67.508 52.0315Z" fill="white"/>
<path d="M67.6672 75.5512L80.6924 74.4826C85.3389 68.4594 88.243 61.005 88.64 52.8859L80.6924 43.1715L82.0713 29.3558C77.5172 22.6405 70.9 17.4591 63.1389 14.7346L50.6016 21.9104V89.3284C54.5258 89.3284 58.3109 88.7299 61.873 87.62L67.6672 75.5512Z" fill="#EBF3FF"/>
<path d="M50.6016 65.2911L55.682 50.3424L51.1705 37.0675L51.485 29.3837L51.1418 22.8729L54.1025 17.1937L50.6016 12.6045C46.2088 12.6045 41.9908 13.356 38.0645 14.7343L49.1133 22.8199V36.4828L36.5502 45.6765L23.14 42.1078L18.8502 29.7778C14.8486 35.8492 12.5156 43.1328 12.5156 50.9663C12.5156 51.5023 12.5295 52.0351 12.551 52.5656L22.3936 45.01L35.5436 48.5093L40.3746 63.4852L33.0703 74.3341L20.5107 74.4818C25.2439 80.6177 31.7852 85.268 39.3301 87.6192L35.4699 76.1119L42.7553 65.2907H50.6016V65.2911Z" fill="#525264"/>
<path d="M65.6594 48.5095L78.4912 45.0947L88.64 52.8855C88.6711 52.2497 88.6875 51.6099 88.6875 50.9663C88.6875 42.9504 86.2451 35.51 82.0713 29.3554L77.5908 42.2335L64.6529 45.6765L52.0898 36.4828V22.8199L63.1387 14.7343C59.2123 13.356 54.9943 12.6045 50.6016 12.6045V14.6034V23.909V35.3935V50.9663V65.2911H58.4477L65.733 76.1123L61.8729 87.6196C69.4178 85.2684 75.9588 80.6181 80.692 74.4822L68.1324 74.3345L60.8281 63.4856L65.6594 48.5095Z" fill="#454553"/>
</g>
<defs>
<clipPath id="clip0">
<rect width="100" height="100.724" fill="white" transform="translate(0.601562 0.604492)"/>
</clipPath>
</defs>
</svg>
