<svg width="101" height="101" viewBox="0 0 101 101" fill="none" xmlns="http://www.w3.org/2000/svg">
<g clip-path="url(#clip0)">
<path d="M50.6016 100.793C78.2158 100.793 100.602 78.4077 100.602 50.7935C100.602 23.1792 78.2158 0.793457 50.6016 0.793457C22.9873 0.793457 0.601562 23.1792 0.601562 50.7935C0.601562 78.4077 22.9873 100.793 50.6016 100.793Z" fill="#918EDD"/>
<path d="M50.6012 15.7021L49.1363 12.738C39.1184 13.1171 30.093 17.3664 23.5082 24.032L24.1387 26.5394L21.5143 26.213C16.1969 32.4992 12.8787 40.531 12.5459 49.3285L15.0543 50.7933L12.5459 52.2582C12.8787 61.0556 16.1969 69.0875 21.5145 75.3734L24.3734 75.1033L23.5084 77.5544C30.0932 84.2203 39.1186 88.4695 49.1365 88.8484L50.6012 86.5355L58.5285 52.8851L50.6012 15.7021Z" fill="#FF7037"/>
<path d="M88.6568 49.3285C88.324 40.531 85.0059 32.4992 79.6883 26.2132L76.5775 27.1923L77.6945 24.0322C71.1098 17.3664 62.0844 13.1171 52.0664 12.738L50.6016 15.7021V86.5355L52.0664 88.8486C62.0844 88.4695 71.1098 84.2203 77.6945 77.5544L76.1516 74.0333L79.6883 75.3736C85.0059 69.0874 88.324 61.0558 88.6568 52.2583L85.9531 50.7933L88.6568 49.3285Z" fill="#FF6426"/>
<path d="M79.6904 75.3751C71.8582 70.0021 66.71 60.9884 66.71 50.7937C66.71 40.599 71.8582 31.5853 79.6904 26.2123C79.0539 25.4597 78.3891 24.7318 77.6969 24.031C69.2859 29.9584 63.7803 39.7447 63.7803 50.7937C63.7803 61.8427 69.2859 71.6291 77.6969 77.5564C78.3891 76.8556 79.0537 76.1277 79.6904 75.3751Z" fill="#EBF3FF"/>
<path d="M23.5063 24.031C22.8141 24.7318 22.1492 25.4597 21.5127 26.2123C29.3449 31.5853 34.4932 40.599 34.4932 50.7937C34.4932 60.9884 29.3449 70.0021 21.5127 75.3751C22.1492 76.1277 22.8141 76.8556 23.5063 77.5564C31.9172 71.6291 37.4229 61.8427 37.4229 50.7937C37.4229 39.7447 31.9174 29.9584 23.5063 24.031Z" fill="white"/>
<path d="M50.6016 12.7075C50.1107 12.7075 49.623 12.7198 49.1367 12.7382V88.8485C49.623 88.8669 50.1107 88.8792 50.6016 88.8792L51.334 87.6919L51.7736 50.7935L51.334 13.6231L50.6016 12.7075Z" fill="white"/>
<path d="M50.6016 49.3286H12.5463C12.5279 49.8149 12.5156 50.3026 12.5156 50.7935C12.5156 51.2843 12.5279 51.772 12.5463 52.2583H50.6016V49.3286Z" fill="white"/>
<path d="M50.6016 49.3286V52.2583H88.6568C88.6752 51.772 88.6875 51.2843 88.6875 50.7935C88.6875 50.3026 88.6752 49.8149 88.6568 49.3286H50.6016Z" fill="#EBF3FF"/>
<path d="M52.0664 88.8487V12.7382C51.5801 12.7198 51.0924 12.7075 50.6016 12.7075V88.8794C51.0924 88.8794 51.5801 88.8671 52.0664 88.8487Z" fill="#EBF3FF"/>
</g>
<defs>
<clipPath id="clip0">
<rect width="100" height="100" fill="white" transform="translate(0.601562 0.793457)"/>
</clipPath>
</defs>
</svg>
