<svg width="121" height="121" viewBox="0 0 121 121" fill="none" xmlns="http://www.w3.org/2000/svg">
<path d="M68.6682 101.242C88.9922 101.242 105.468 84.7657 105.468 64.4416C105.468 44.1175 88.9922 27.6416 68.6682 27.6416C48.3441 27.6416 31.8682 44.1175 31.8682 64.4416C31.8682 84.7657 48.3441 101.242 68.6682 101.242Z" fill="#EAEAEA"/>
<path d="M101.468 54.8416C98.3806 54.8416 95.8682 52.3292 95.8682 49.2416C95.8682 46.154 98.3806 43.6416 101.468 43.6416C104.556 43.6416 107.068 46.154 107.068 49.2416C107.068 52.3292 104.556 54.8416 101.468 54.8416ZM101.468 46.8416C100.145 46.8416 99.0682 47.918 99.0682 49.2416C99.0682 50.5652 100.145 51.6416 101.468 51.6416C102.792 51.6416 103.868 50.5652 103.868 49.2416C103.868 47.918 102.792 46.8416 101.468 46.8416Z" fill="#4C241D"/>
<path d="M102.4 92.7084C103.344 92.7084 104.11 91.9426 104.11 90.998C104.11 90.0534 103.344 89.2876 102.4 89.2876C101.455 89.2876 100.689 90.0534 100.689 90.998C100.689 91.9426 101.455 92.7084 102.4 92.7084Z" fill="#4C241D"/>
<path d="M97.6 71.9086C98.5447 71.9086 99.3104 71.1428 99.3104 70.1982C99.3104 69.2536 98.5447 68.4878 97.6 68.4878C96.6554 68.4878 95.8896 69.2536 95.8896 70.1982C95.8896 71.1428 96.6554 71.9086 97.6 71.9086Z" fill="#4C241D"/>
<path d="M30.3674 41.9844L22.0534 37.1844C15.9314 33.6496 13.8338 25.8212 17.3682 19.6992L25.6822 24.4992C31.8042 28.0336 33.9018 35.862 30.3674 41.9844Z" fill="#A9BA5A"/>
<path d="M30.3659 43.5842C30.0947 43.5842 29.8199 43.5154 29.5675 43.3702L21.2543 38.5702C17.9231 36.6466 15.5403 33.5422 14.5451 29.8266C13.5491 26.1118 14.0599 22.2306 15.9835 18.9002C16.4251 18.1346 17.4015 17.8714 18.1695 18.3142L26.4827 23.1142C29.8139 25.0378 32.1967 28.1422 33.1919 31.8578C34.1879 35.5726 33.6771 39.4538 31.7535 42.7842C31.4567 43.2974 30.9191 43.5842 30.3659 43.5842ZM18.0519 21.9418C17.1535 24.1762 17.0011 26.6302 17.6355 28.9982C18.4099 31.8882 20.2627 34.303 22.8543 35.7982L29.6847 39.7418C30.5831 37.5074 30.7355 35.0534 30.1011 32.6854C29.3267 29.7954 27.4739 27.3806 24.8823 25.8854L18.0519 21.9418Z" fill="#4C241D"/>
<path d="M87.4658 32.2042L80.6886 30.6082C75.6982 29.433 72.605 24.4346 73.7806 19.4438L80.5578 21.0398C85.5482 22.2154 88.641 27.2138 87.4658 32.2042Z" fill="#A9BA5A"/>
<path d="M87.4661 33.8046C87.3433 33.8046 87.2209 33.7906 87.0997 33.7618L80.3225 32.1658C74.4805 30.7902 70.8473 24.9182 72.2241 19.0766C72.4265 18.2166 73.2913 17.6782 74.1477 17.8866L80.9249 19.4826C86.7665 20.8582 90.3993 26.7302 89.0233 32.571C88.9265 32.9842 88.6693 33.3422 88.3085 33.5654C88.0529 33.7226 87.7617 33.8046 87.4661 33.8046ZM75.1349 21.4062C75.0569 24.9546 77.4653 28.2054 81.0561 29.0514L86.1125 30.2422C86.1897 26.6938 83.7813 23.443 80.1913 22.597L75.1349 21.4062Z" fill="#4C241D"/>
<path d="M49.9922 34.0245L51.8402 27.3117C53.201 22.3685 58.3114 19.4645 63.2546 20.8249L61.4066 27.5377C60.0458 32.4813 54.9354 35.3853 49.9922 34.0245Z" fill="#A9BA5A"/>
<path d="M52.4521 35.9583C51.4989 35.9583 50.5309 35.8327 49.5685 35.5675C49.1593 35.4551 48.8113 35.1839 48.6021 34.8151C48.3921 34.4463 48.3373 34.0087 48.4497 33.6003L50.2973 26.8871C51.8901 21.1011 57.8965 17.6919 63.6785 19.2815C64.0877 19.3939 64.4357 19.6651 64.6449 20.0339C64.8549 20.4027 64.9097 20.8403 64.7973 21.2487L62.9497 27.9619C61.6217 32.7855 57.2289 35.9583 52.4521 35.9583ZM52.0045 32.7451C55.5437 32.9551 58.8857 30.6695 59.8637 27.1131L61.2425 22.1047C57.7181 21.9131 54.3621 24.1803 53.3833 27.7367L52.0045 32.7451Z" fill="#4C241D"/>
<path d="M14.7109 50.4213L43.1001 34.4525C43.8641 34.0221 44.7689 33.9253 45.6101 34.1829L65.3297 40.2509L99.2517 26.6821L101.628 32.6241L66.6569 46.6125C65.9773 46.8829 65.2257 46.9141 64.5273 46.7001L45.0405 40.7041L17.8485 55.9993" fill="#BF7E68"/>
<path d="M17.8495 57.5996C17.2903 57.5996 16.7471 57.306 16.4535 56.784C16.0199 56.0136 16.2935 55.0388 17.0635 54.6052L44.2555 39.31C44.6367 39.0944 45.0915 39.0452 45.5103 39.1756L64.9971 45.1716C65.3455 45.2764 65.7243 45.2616 66.0651 45.1264L99.5479 31.7336L98.3595 28.7624L65.9235 41.7376C65.5835 41.8728 65.2071 41.8884 64.8587 41.7804L45.1391 35.7124C44.7127 35.5828 44.2695 35.6312 43.8843 35.8468L15.4951 51.816C14.7247 52.2496 13.7491 51.976 13.3163 51.206C12.8827 50.4356 13.1563 49.4608 13.9263 49.0272L42.3155 33.0584C43.4539 32.4168 44.8263 32.27 46.0787 32.6536L65.2599 38.556L98.6567 25.1968C99.0519 25.0404 99.4911 25.0436 99.8815 25.2124C100.271 25.3796 100.579 25.6944 100.737 26.088L103.113 32.03C103.441 32.8512 103.042 33.7816 102.222 34.1104L67.2507 48.0988C66.2311 48.5036 65.0991 48.548 64.0579 48.23L45.2259 42.4356L18.6323 57.394C18.3847 57.534 18.1151 57.5996 17.8495 57.5996Z" fill="#4C241D"/>
<path d="M105.585 40.604L99.8023 36.726C95.5439 33.8704 94.4071 28.1036 97.2627 23.8452L103.046 27.7232C107.304 30.5792 108.441 36.346 105.585 40.604Z" fill="#A9BA5A"/>
<path d="M105.584 42.2034C105.277 42.2034 104.968 42.1158 104.694 41.9322L98.9109 38.055C93.9273 34.713 92.5913 27.9386 95.9337 22.9534C96.1705 22.601 96.5369 22.3574 96.9533 22.2754C97.3673 22.191 97.8009 22.2794 98.1541 22.5162L103.937 26.3942C106.351 28.0138 107.99 30.4754 108.553 33.3278C109.115 36.1802 108.533 39.081 106.914 41.495C106.606 41.955 106.099 42.2034 105.584 42.2034ZM97.8385 26.1574C97.2877 27.5246 97.1433 29.0222 97.4345 30.5018C97.8313 32.5158 98.9893 34.2542 100.694 35.397L105.009 38.2906C105.56 36.9242 105.705 35.4266 105.413 33.947C105.016 31.933 103.859 30.1946 102.154 29.0518L97.8385 26.1574Z" fill="#4C241D"/>
<path d="M102.68 17.2472L99.7186 23.5484C97.5378 28.1884 92.0082 30.182 87.3682 28.0012L90.3298 21.7C92.5106 17.06 98.0398 15.0664 102.68 17.2472Z" fill="#A9BA5A"/>
<path d="M91.3001 30.4833C89.7509 30.4833 88.1797 30.1513 86.6877 29.4505C85.8877 29.0741 85.5441 28.1217 85.9197 27.3217L88.8805 21.0201C91.4337 15.5897 97.9297 13.2473 103.36 15.7989C103.745 15.9793 104.041 16.3053 104.185 16.7045C104.329 17.1037 104.309 17.5445 104.127 17.9281L101.165 24.2297C99.3149 28.1685 95.3893 30.4833 91.3001 30.4833ZM89.5681 27.0825C93.0173 27.8941 96.7017 26.2073 98.2697 22.8685L100.48 18.1669C97.0297 17.3553 93.3461 19.0433 91.7765 22.3809L89.5681 27.0825Z" fill="#4C241D"/>
<path d="M95.9855 39.0039L90.2027 35.1259C85.9443 32.2703 84.8075 26.5035 87.6631 22.2451L93.4459 26.1231C97.7043 28.9791 98.8411 34.7459 95.9855 39.0039Z" fill="#A9BA5A"/>
<path d="M95.9841 40.6036C95.6777 40.6036 95.3685 40.516 95.0941 40.3324L89.3113 36.4552C84.3277 33.1132 82.9917 26.3388 86.3341 21.3536C86.5709 21.0012 86.9373 20.7576 87.3537 20.6756C87.7669 20.592 88.2013 20.6788 88.5545 20.9164L94.3373 24.7944C96.7513 26.414 98.3905 28.8756 98.9529 31.728C99.5153 34.5804 98.9333 37.4812 97.3145 39.8952C97.0061 40.3552 96.4997 40.6036 95.9841 40.6036ZM88.2389 24.5576C87.6881 25.9248 87.5437 27.4224 87.8349 28.902C88.2317 30.916 89.3897 32.6544 91.0941 33.7972L95.4097 36.6908C95.9605 35.3244 96.1049 33.8268 95.8137 32.3472C95.4161 30.3332 94.2589 28.5948 92.5545 27.452L88.2389 24.5576Z" fill="#4C241D"/>
<path d="M84.6676 56.4418H46.2676C46.2676 51.1398 50.5656 46.8418 55.8676 46.8418H75.0676C80.3696 46.8418 84.6676 51.1398 84.6676 56.4418Z" fill="#FFCE56"/>
<path d="M84.668 58.0417H46.268C45.3844 58.0417 44.668 57.3253 44.668 56.4417C44.668 50.2661 49.6924 45.2417 55.868 45.2417H75.068C81.2436 45.2417 86.268 50.2661 86.268 56.4417C86.268 57.3253 85.5516 58.0417 84.668 58.0417ZM48.0292 54.8417H82.9072C82.1644 51.1949 78.9316 48.4417 75.068 48.4417H55.868C52.0048 48.4417 48.772 51.1949 48.0292 54.8417Z" fill="#4C241D"/>
<path d="M84.6676 94.8418H46.2676C46.2676 100.144 50.5656 104.442 55.8676 104.442H75.0676C80.3696 104.442 84.6676 100.144 84.6676 94.8418Z" fill="#FFCE56"/>
<path d="M75.068 106.042H55.868C49.6924 106.042 44.668 101.017 44.668 94.8417C44.668 93.9581 45.3844 93.2417 46.268 93.2417H84.668C85.5516 93.2417 86.268 93.9581 86.268 94.8417C86.268 101.018 81.244 106.042 75.068 106.042ZM48.0292 96.4417C48.772 100.088 52.0048 102.842 55.8684 102.842H75.0684C78.9316 102.842 82.1644 100.088 82.9076 96.4417H48.0292Z" fill="#4C241D"/>
<path d="M83.0674 66.0419H47.8674C45.2166 66.0419 43.0674 63.8927 43.0674 61.2419C43.0674 58.5911 45.2166 56.4419 47.8674 56.4419H83.0674C85.7182 56.4419 87.8674 58.5911 87.8674 61.2419C87.8674 63.8931 85.7186 66.0419 83.0674 66.0419Z" fill="#FC8C29"/>
<path d="M83.0678 67.6418H47.8678C44.339 67.6418 41.4678 64.7706 41.4678 61.2418C41.4678 57.713 44.339 54.8418 47.8678 54.8418H83.0678C86.5966 54.8418 89.4678 57.713 89.4678 61.2418C89.4678 64.7706 86.5966 67.6418 83.0678 67.6418ZM47.8678 58.0418C46.103 58.0418 44.6678 59.477 44.6678 61.2418C44.6678 63.0066 46.103 64.4418 47.8678 64.4418H83.0678C84.8326 64.4418 86.2678 63.0066 86.2678 61.2418C86.2678 59.477 84.8326 58.0418 83.0678 58.0418H47.8678Z" fill="#4C241D"/>
<path d="M83.0674 94.8417H47.8674C45.2166 94.8417 43.0674 92.6925 43.0674 90.0417C43.0674 87.3909 45.2166 85.2417 47.8674 85.2417H83.0674C85.7182 85.2417 87.8674 87.3909 87.8674 90.0417C87.8674 92.6929 85.7186 94.8417 83.0674 94.8417Z" fill="#FC8C29"/>
<path d="M83.0678 96.4416H47.8678C44.339 96.4416 41.4678 93.5704 41.4678 90.0416C41.4678 86.5128 44.339 83.6416 47.8678 83.6416H83.0678C86.5966 83.6416 89.4678 86.5128 89.4678 90.0416C89.4678 93.5704 86.5966 96.4416 83.0678 96.4416ZM47.8678 86.8416C46.103 86.8416 44.6678 88.2768 44.6678 90.0416C44.6678 91.8064 46.103 93.2416 47.8678 93.2416H83.0678C84.8326 93.2416 86.2678 91.8064 86.2678 90.0416C86.2678 88.2768 84.8326 86.8416 83.0678 86.8416H47.8678Z" fill="#4C241D"/>
<path d="M83.0674 75.642C85.7182 75.642 87.8674 73.4928 87.8674 70.842C87.8674 68.1912 85.7182 66.042 83.0674 66.042H47.8674C45.2166 66.042 43.0674 68.1912 43.0674 70.842C43.0674 73.4928 45.2166 75.642 47.8674 75.642C45.2166 75.642 43.0674 77.7912 43.0674 80.442C43.0674 83.0928 45.2166 85.242 47.8674 85.242H83.0674C85.7182 85.242 87.8674 83.0928 87.8674 80.442C87.8674 77.7912 85.7186 75.642 83.0674 75.642Z" fill="#FFCE56"/>
<path d="M83.0678 86.8419H47.8678C44.339 86.8419 41.4678 83.9707 41.4678 80.4419C41.4678 78.5327 42.3086 76.8155 43.639 75.6419C42.3086 74.4683 41.4678 72.7511 41.4678 70.8419C41.4678 67.3131 44.339 64.4419 47.8678 64.4419H83.0678C86.5966 64.4419 89.4678 67.3131 89.4678 70.8419C89.4678 72.7511 88.627 74.4683 87.2966 75.6419C88.627 76.8155 89.4678 78.5327 89.4678 80.4419C89.4678 83.9707 86.5966 86.8419 83.0678 86.8419ZM47.8678 77.2419C46.103 77.2419 44.6678 78.6771 44.6678 80.4419C44.6678 82.2067 46.103 83.6419 47.8678 83.6419H83.0678C84.8326 83.6419 86.2678 82.2067 86.2678 80.4419C86.2678 78.6771 84.8326 77.2419 83.0678 77.2419C82.1842 77.2419 81.4678 76.5255 81.4678 75.6419C81.4678 74.7583 82.1842 74.0419 83.0678 74.0419C84.8326 74.0419 86.2678 72.6067 86.2678 70.8419C86.2678 69.0771 84.8326 67.6419 83.0678 67.6419H47.8678C46.103 67.6419 44.6678 69.0771 44.6678 70.8419C44.6678 72.6067 46.103 74.0419 47.8678 74.0419C48.7514 74.0419 49.4678 74.7583 49.4678 75.6419C49.4678 76.5255 48.7514 77.2419 47.8678 77.2419Z" fill="#4C241D"/>
<path d="M65.4672 85.242C70.7691 85.242 75.0672 80.9439 75.0672 75.642C75.0672 70.3401 70.7691 66.042 65.4672 66.042C60.1653 66.042 55.8672 70.3401 55.8672 75.642C55.8672 80.9439 60.1653 85.242 65.4672 85.242Z" fill="#6B4F5B"/>
<path d="M65.4676 86.8419C59.292 86.8419 54.2676 81.8175 54.2676 75.6419C54.2676 69.4663 59.292 64.4419 65.4676 64.4419C71.6432 64.4419 76.6676 69.4663 76.6676 75.6419C76.6676 81.8175 71.6436 86.8419 65.4676 86.8419ZM65.4676 67.6419C61.0568 67.6419 57.4676 71.2311 57.4676 75.6419C57.4676 80.0527 61.0568 83.6419 65.4676 83.6419C69.8784 83.6419 73.4676 80.0527 73.4676 75.6419C73.4676 71.2311 69.8788 67.6419 65.4676 67.6419Z" fill="#4C241D"/>
<path d="M31.8676 64.2462C30.984 64.2462 30.2676 63.5298 30.2676 62.6462V60.3822C30.2676 59.4986 30.984 58.7822 31.8676 58.7822C32.7512 58.7822 33.4676 59.4986 33.4676 60.3822V62.6462C33.4676 63.5298 32.7512 64.2462 31.8676 64.2462Z" fill="#4C241D"/>
<path d="M31.8676 73.3009C30.984 73.3009 30.2676 72.5845 30.2676 71.7009V69.4369C30.2676 68.5533 30.984 67.8369 31.8676 67.8369C32.7512 67.8369 33.4676 68.5533 33.4676 69.4369V71.7009C33.4676 72.5845 32.7512 73.3009 31.8676 73.3009Z" fill="#4C241D"/>
<path d="M28.4724 67.6414H26.2084C25.3248 67.6414 24.6084 66.925 24.6084 66.0414C24.6084 65.1578 25.3248 64.4414 26.2084 64.4414H28.4724C29.356 64.4414 30.0724 65.1578 30.0724 66.0414C30.0724 66.925 29.356 67.6414 28.4724 67.6414Z" fill="#4C241D"/>
<path d="M37.5271 67.6414H35.2631C34.3795 67.6414 33.6631 66.925 33.6631 66.0414C33.6631 65.1578 34.3795 64.4414 35.2631 64.4414H37.5271C38.4107 64.4414 39.1271 65.1578 39.1271 66.0414C39.1271 66.925 38.4107 67.6414 37.5271 67.6414Z" fill="#4C241D"/>
</svg>
