<svg width="121" height="121" viewBox="0 0 121 121" fill="none" xmlns="http://www.w3.org/2000/svg">
<path d="M69.8205 90.8954C90.1446 90.8954 106.621 74.4195 106.621 54.0954C106.621 33.7713 90.1446 17.2954 69.8205 17.2954C49.4964 17.2954 33.0205 33.7713 33.0205 54.0954C33.0205 74.4195 49.4964 90.8954 69.8205 90.8954Z" fill="#EAEAEA"/>
<path d="M101.021 26.8953C97.9333 26.8953 95.4209 24.3829 95.4209 21.2953C95.4209 18.2077 97.9333 15.6953 101.021 15.6953C104.108 15.6953 106.621 18.2077 106.621 21.2953C106.621 24.3829 104.108 26.8953 101.021 26.8953ZM101.021 18.8953C99.6973 18.8953 98.6209 19.9717 98.6209 21.2953C98.6209 22.6189 99.6973 23.6953 101.021 23.6953C102.344 23.6953 103.421 22.6189 103.421 21.2953C103.421 19.9717 102.344 18.8953 101.021 18.8953Z" fill="#4C241D"/>
<path d="M100.882 43.5576C100.473 43.5576 100.064 43.4012 99.7512 43.0888L95.2264 38.564C94.6016 37.9392 94.6016 36.9264 95.2264 36.3016C95.8512 35.6768 96.864 35.6768 97.4888 36.3016L102.014 40.8264C102.638 41.4512 102.638 42.464 102.014 43.0888C101.701 43.4012 101.292 43.5576 100.882 43.5576Z" fill="#4C241D"/>
<path d="M96.3576 43.5576C95.9484 43.5576 95.5388 43.4012 95.2264 43.0888C94.6016 42.464 94.6016 41.4512 95.2264 40.8264L99.7512 36.3016C100.376 35.6768 101.389 35.6768 102.014 36.3016C102.638 36.9264 102.638 37.9392 102.014 38.564L97.4888 43.0888C97.1764 43.4012 96.7668 43.5576 96.3576 43.5576Z" fill="#4C241D"/>
<path d="M89.0199 18.8953C89.9036 18.8953 90.6199 18.179 90.6199 17.2953C90.6199 16.4117 89.9036 15.6953 89.0199 15.6953C88.1363 15.6953 87.4199 16.4117 87.4199 17.2953C87.4199 18.179 88.1363 18.8953 89.0199 18.8953Z" fill="#4C241D"/>
<path d="M76.2201 18.8953C77.1038 18.8953 77.8201 18.179 77.8201 17.2953C77.8201 16.4117 77.1038 15.6953 76.2201 15.6953C75.3365 15.6953 74.6201 16.4117 74.6201 17.2953C74.6201 18.179 75.3365 18.8953 76.2201 18.8953Z" fill="#4C241D"/>
<path d="M15.4209 45.3453V53.1949L25.0209 59.7453L34.6209 53.1949V45.3453L25.0209 38.9453L15.4209 45.3453Z" fill="#FFCE56"/>
<path d="M25.0203 61.345C24.7047 61.345 24.3907 61.2522 24.1187 61.067L14.5187 54.517C14.0811 54.2186 13.8203 53.7242 13.8203 53.1954V45.3454C13.8203 44.8102 14.0875 44.311 14.5327 44.0142L24.1327 37.6142C24.6703 37.2562 25.3703 37.2562 25.9079 37.6142L35.5079 44.0142C35.9531 44.311 36.2203 44.8102 36.2203 45.3454V53.1954C36.2203 53.7242 35.9595 54.219 35.5219 54.5174L25.9219 61.0674C25.6499 61.2522 25.3359 61.345 25.0203 61.345ZM17.0203 52.3498L25.0203 57.8082L33.0203 52.3498V46.2014L25.0203 40.8678L17.0203 46.2014V52.3498Z" fill="#4C241D"/>
<path d="M25.0205 30.9454V38.795L34.6205 45.3454L44.2205 38.795V30.9454L34.6205 24.5454L25.0205 30.9454Z" fill="#FC8C29"/>
<path d="M34.6199 46.945C34.3043 46.945 33.9903 46.8522 33.7183 46.667L24.1183 40.117C23.6807 39.8186 23.4199 39.3242 23.4199 38.7954V30.945C23.4199 30.4098 23.6871 29.9106 24.1323 29.6138L33.7323 23.2138C34.2699 22.8558 34.9699 22.8558 35.5075 23.2138L45.1075 29.6138C45.5527 29.9106 45.8199 30.4098 45.8199 30.945V38.795C45.8199 39.3238 45.5591 39.8186 45.1215 40.117L35.5215 46.667C35.2495 46.8522 34.9355 46.945 34.6199 46.945ZM26.6199 37.9498L34.6199 43.4082L42.6199 37.9498V31.8014L34.6199 26.4678L26.6199 31.8014V37.9498Z" fill="#4C241D"/>
<path d="M34.6211 45.3453V53.1949L44.2211 59.7453L53.8211 53.1949V45.3453L44.2211 38.9453L34.6211 45.3453Z" fill="#FC8C29"/>
<path d="M44.2205 61.345C43.9049 61.345 43.5909 61.2522 43.3189 61.067L33.7189 54.517C33.2813 54.2186 33.0205 53.7242 33.0205 53.1954V45.3454C33.0205 44.8102 33.2877 44.311 33.7329 44.0142L43.3329 37.6142C43.8705 37.2562 44.5705 37.2562 45.1081 37.6142L54.7081 44.0142C55.1533 44.311 55.4205 44.8102 55.4205 45.3454V53.1954C55.4205 53.7242 55.1597 54.219 54.7221 54.5174L45.1221 61.0674C44.8501 61.2522 44.5361 61.345 44.2205 61.345ZM36.2205 52.3498L44.2205 57.8082L52.2205 52.3498V46.2014L44.2205 40.8678L36.2205 46.2014V52.3498Z" fill="#4C241D"/>
<path d="M44.2207 30.9454V38.795L53.8207 45.3454L63.4207 38.795V30.9454L53.8207 24.5454L44.2207 30.9454Z" fill="#FFCE56"/>
<path d="M53.8201 46.945C53.5045 46.945 53.1905 46.8522 52.9185 46.667L43.3185 40.117C42.8809 39.8186 42.6201 39.3242 42.6201 38.7954V30.945C42.6201 30.4098 42.8873 29.9106 43.3325 29.6138L52.9325 23.2138C53.4701 22.8558 54.1701 22.8558 54.7077 23.2138L64.3077 29.6138C64.7529 29.9106 65.0201 30.4098 65.0201 30.945V38.795C65.0201 39.3238 64.7593 39.8186 64.3217 40.117L54.7217 46.667C54.4497 46.8522 54.1357 46.945 53.8201 46.945ZM45.8201 37.9498L53.8201 43.4082L61.8201 37.9498V31.8014L53.8201 26.4678L45.8201 31.8014V37.9498Z" fill="#4C241D"/>
<path d="M53.8213 45.3453V53.1949L63.4213 59.7453L73.0213 53.1949V45.3453L63.4213 38.9453L53.8213 45.3453Z" fill="#FC8C29"/>
<path d="M63.4207 61.3449C63.1051 61.3449 62.7911 61.2521 62.5191 61.0669L52.9191 54.5169C52.4815 54.2185 52.2207 53.7241 52.2207 53.1949V45.3449C52.2207 44.8097 52.4879 44.3105 52.9331 44.0137L62.5331 37.6137C63.0707 37.2557 63.7707 37.2557 64.3083 37.6137L73.9083 44.0137C74.3535 44.3105 74.6207 44.8097 74.6207 45.3449V53.1949C74.6207 53.7237 74.3599 54.2185 73.9223 54.5169L64.3223 61.0669C64.0503 61.2521 63.7363 61.3449 63.4207 61.3449ZM55.4207 52.3497L63.4207 57.8081L71.4207 52.3497V46.2013L63.4207 40.8677L55.4207 46.2013V52.3497Z" fill="#4C241D"/>
<path d="M63.4199 30.9454V38.795L73.0199 45.3454L82.6199 38.795V30.9454L73.0199 24.5454L63.4199 30.9454Z" fill="#FC8C29"/>
<path d="M73.0193 46.945C72.7037 46.945 72.3897 46.8522 72.1177 46.667L62.5177 40.117C62.0801 39.8186 61.8193 39.3242 61.8193 38.7954V30.945C61.8193 30.4098 62.0865 29.9106 62.5317 29.6138L72.1317 23.2138C72.6693 22.8558 73.3693 22.8558 73.9069 23.2138L83.5069 29.6138C83.9521 29.9106 84.2193 30.4098 84.2193 30.945V38.795C84.2193 39.3238 83.9585 39.8186 83.5209 40.117L73.9209 46.667C73.6489 46.8522 73.3349 46.945 73.0193 46.945ZM65.0193 37.9498L73.0193 43.4082L81.0193 37.9498V31.8014L73.0193 26.4678L65.0193 31.8014V37.9498Z" fill="#4C241D"/>
<path d="M15.4209 74.1451V81.9947L25.0209 88.5451L34.6209 81.9947V74.1451L25.0209 67.7451L15.4209 74.1451Z" fill="#FFCE56"/>
<path d="M25.0203 90.1448C24.7047 90.1448 24.3907 90.052 24.1187 89.8668L14.5187 83.3168C14.0811 83.0184 13.8203 82.524 13.8203 81.9952V74.1452C13.8203 73.61 14.0875 73.1108 14.5327 72.814L24.1327 66.414C24.6703 66.056 25.3703 66.056 25.9079 66.414L35.5079 72.814C35.9531 73.1108 36.2203 73.61 36.2203 74.1452V81.9952C36.2203 82.524 35.9595 83.0188 35.5219 83.3172L25.9219 89.8672C25.6499 90.052 25.3359 90.1448 25.0203 90.1448ZM17.0203 81.1496L25.0203 86.608L33.0203 81.1496V75.0012L25.0203 69.6676L17.0203 75.0012V81.1496Z" fill="#4C241D"/>
<path d="M34.6211 74.1451V81.9947L44.2211 88.5451L53.8211 81.9947V74.1451L44.2211 67.7451L34.6211 74.1451Z" fill="#FC8C29"/>
<path d="M44.2205 90.1448C43.9049 90.1448 43.5909 90.052 43.3189 89.8668L33.7189 83.3168C33.2813 83.0184 33.0205 82.524 33.0205 81.9952V74.1452C33.0205 73.61 33.2877 73.1108 33.7329 72.814L43.3329 66.414C43.8705 66.056 44.5705 66.056 45.1081 66.414L54.7081 72.814C55.1533 73.1108 55.4205 73.61 55.4205 74.1452V81.9952C55.4205 82.524 55.1597 83.0188 54.7221 83.3172L45.1221 89.8672C44.8501 90.052 44.5361 90.1448 44.2205 90.1448ZM36.2205 81.1496L44.2205 86.608L52.2205 81.1496V75.0012L44.2205 69.6676L36.2205 75.0012V81.1496Z" fill="#4C241D"/>
<path d="M44.2207 59.7452V67.5948L53.8207 74.1452L63.4207 67.5948V59.7452L53.8207 53.3452L44.2207 59.7452Z" fill="#FFCE56"/>
<path d="M53.8201 75.7448C53.5045 75.7448 53.1905 75.652 52.9185 75.4668L43.3185 68.9168C42.8809 68.6184 42.6201 68.124 42.6201 67.5948V59.7448C42.6201 59.2096 42.8873 58.7104 43.3325 58.4136L52.9325 52.0136C53.4701 51.6556 54.1701 51.6556 54.7077 52.0136L64.3077 58.4136C64.7529 58.7104 65.0201 59.2096 65.0201 59.7448V67.5948C65.0201 68.1236 64.7593 68.6184 64.3217 68.9168L54.7217 75.4668C54.4497 75.652 54.1357 75.7448 53.8201 75.7448ZM45.8201 66.7496L53.8201 72.208L61.8201 66.7496V60.6012L53.8201 55.2676L45.8201 60.6012V66.7496Z" fill="#4C241D"/>
<path d="M53.8213 74.1451V81.9947L63.4213 88.5451L73.0213 81.9947V74.1451L63.4213 67.7451L53.8213 74.1451Z" fill="#FFCE56"/>
<path d="M63.4207 90.1447C63.1051 90.1447 62.7911 90.0519 62.5191 89.8667L52.9191 83.3167C52.4815 83.0183 52.2207 82.5239 52.2207 81.9947V74.1447C52.2207 73.6095 52.4879 73.1103 52.9331 72.8135L62.5331 66.4135C63.0707 66.0555 63.7707 66.0555 64.3083 66.4135L73.9083 72.8135C74.3535 73.1103 74.6207 73.6095 74.6207 74.1447V81.9947C74.6207 82.5235 74.3599 83.0183 73.9223 83.3167L64.3223 89.8667C64.0503 90.0519 63.7363 90.1447 63.4207 90.1447ZM55.4207 81.1495L63.4207 86.6079L71.4207 81.1495V75.0011L63.4207 69.6675L55.4207 75.0011V81.1495Z" fill="#4C241D"/>
<path d="M44.2207 88.5455V96.3951L53.8207 102.946L63.4207 96.3951V88.5455L53.8207 82.1455L44.2207 88.5455Z" fill="#FFCE56"/>
<path d="M53.8201 104.545C53.5045 104.545 53.1905 104.452 52.9185 104.267L43.3185 97.7171C42.8809 97.4187 42.6201 96.9243 42.6201 96.3951V88.5451C42.6201 88.0099 42.8873 87.5107 43.3325 87.2139L52.9325 80.8139C53.4701 80.4559 54.1701 80.4559 54.7077 80.8139L64.3077 87.2139C64.7529 87.5107 65.0201 88.0099 65.0201 88.5451V96.3951C65.0201 96.9239 64.7593 97.4187 64.3217 97.7171L54.7217 104.267C54.4497 104.452 54.1357 104.545 53.8201 104.545ZM45.8201 95.5499L53.8201 101.008L61.8201 95.5499V89.4015L53.8201 84.0679L45.8201 89.4015V95.5499Z" fill="#4C241D"/>
<path d="M63.4199 88.5455V96.3951L73.0199 102.946L82.6199 96.3951V88.5455L73.0199 82.1455L63.4199 88.5455Z" fill="#FC8C29"/>
<path d="M73.0193 104.545C72.7037 104.545 72.3897 104.452 72.1177 104.267L62.5177 97.7171C62.0801 97.4187 61.8193 96.9243 61.8193 96.3951V88.5451C61.8193 88.0099 62.0865 87.5107 62.5317 87.2139L72.1317 80.8139C72.6693 80.4559 73.3693 80.4559 73.9069 80.8139L83.5069 87.2139C83.9521 87.5107 84.2193 88.0099 84.2193 88.5451V96.3951C84.2193 96.9239 83.9585 97.4187 83.5209 97.7171L73.9209 104.267C73.6489 104.452 73.3349 104.545 73.0193 104.545ZM65.0193 95.5499L73.0193 101.008L81.0193 95.5499V89.4015L73.0193 84.0679L65.0193 89.4015V95.5499Z" fill="#4C241D"/>
<path d="M63.4199 59.7452V67.5948L73.0199 74.1452L82.6199 67.5948V59.7452L73.0199 53.3452L63.4199 59.7452Z" fill="#FFCE56"/>
<path d="M73.0193 75.7448C72.7037 75.7448 72.3897 75.652 72.1177 75.4668L62.5177 68.9168C62.0801 68.6184 61.8193 68.124 61.8193 67.5948V59.7448C61.8193 59.2096 62.0865 58.7104 62.5317 58.4136L72.1317 52.0136C72.6693 51.6556 73.3693 51.6556 73.9069 52.0136L83.5069 58.4136C83.9521 58.7104 84.2193 59.2096 84.2193 59.7448V67.5948C84.2193 68.1236 83.9585 68.6184 83.5209 68.9168L73.9209 75.4668C73.6489 75.652 73.3349 75.7448 73.0193 75.7448ZM65.0193 66.7496L73.0193 72.208L81.0193 66.7496V60.6012L73.0193 55.2676L65.0193 60.6012V66.7496Z" fill="#4C241D"/>
<path d="M73.0215 74.1451V81.9947L82.6215 88.5451L92.2215 81.9947V74.1451L82.6215 67.7451L73.0215 74.1451Z" fill="#FC8C29"/>
<path d="M82.6209 90.1447C82.3053 90.1447 81.9913 90.0519 81.7193 89.8667L72.1193 83.3167C71.6817 83.0183 71.4209 82.5239 71.4209 81.9947V74.1447C71.4209 73.6095 71.6881 73.1103 72.1333 72.8135L81.7333 66.4135C82.2709 66.0555 82.9709 66.0555 83.5085 66.4135L93.1085 72.8135C93.5537 73.1103 93.8209 73.6095 93.8209 74.1447V81.9947C93.8209 82.5235 93.5601 83.0183 93.1225 83.3167L83.5225 89.8667C83.2505 90.0519 82.9365 90.1447 82.6209 90.1447ZM74.6209 81.1495L82.6209 86.6079L90.6209 81.1495V75.0011L82.6209 69.6675L74.6209 75.0011V81.1495Z" fill="#4C241D"/>
<path d="M82.6201 59.7452V67.5948L92.2201 74.1452L101.82 67.5948V59.7452L92.2201 53.3452L82.6201 59.7452Z" fill="#FC8C29"/>
<path d="M92.2195 75.7448C91.9039 75.7448 91.5899 75.652 91.3179 75.4668L81.7179 68.9168C81.2803 68.6184 81.0195 68.124 81.0195 67.5948V59.7448C81.0195 59.2096 81.2867 58.7104 81.7319 58.4136L91.3319 52.0136C91.8695 51.6556 92.5695 51.6556 93.1071 52.0136L102.707 58.4136C103.152 58.7104 103.42 59.2096 103.42 59.7448V67.5948C103.42 68.1236 103.159 68.6184 102.721 68.9168L93.1211 75.4668C92.8491 75.652 92.5351 75.7448 92.2195 75.7448ZM84.2195 66.7496L92.2195 72.208L100.22 66.7496V60.6012L92.2195 55.2676L84.2195 60.6012V66.7496Z" fill="#4C241D"/>
<path d="M31.4193 34.8953C32.303 34.8953 33.0193 34.179 33.0193 33.2953C33.0193 32.4117 32.303 31.6953 31.4193 31.6953C30.5357 31.6953 29.8193 32.4117 29.8193 33.2953C29.8193 34.179 30.5357 34.8953 31.4193 34.8953Z" fill="white"/>
<path d="M41.0199 78.0955C41.9036 78.0955 42.6199 77.3792 42.6199 76.4955C42.6199 75.6119 41.9036 74.8955 41.0199 74.8955C40.1363 74.8955 39.4199 75.6119 39.4199 76.4955C39.4199 77.3792 40.1363 78.0955 41.0199 78.0955Z" fill="white"/>
<path d="M69.8197 63.6951C70.7034 63.6951 71.4197 62.9788 71.4197 62.0951C71.4197 61.2115 70.7034 60.4951 69.8197 60.4951C68.9361 60.4951 68.2197 61.2115 68.2197 62.0951C68.2197 62.9788 68.9361 63.6951 69.8197 63.6951Z" fill="white"/>
<path d="M79.4203 78.0955C80.304 78.0955 81.0203 77.3792 81.0203 76.4955C81.0203 75.6119 80.304 74.8955 79.4203 74.8955C78.5367 74.8955 77.8203 75.6119 77.8203 76.4955C77.8203 77.3792 78.5367 78.0955 79.4203 78.0955Z" fill="white"/>
<path d="M73.0209 33.2952C73.9046 33.2952 74.6209 32.5789 74.6209 31.6952C74.6209 30.8116 73.9046 30.0952 73.0209 30.0952C72.1372 30.0952 71.4209 30.8116 71.4209 31.6952C71.4209 32.5789 72.1372 33.2952 73.0209 33.2952Z" fill="white"/>
</svg>
