<svg width="121" height="121" viewBox="0 0 121 121" fill="none" xmlns="http://www.w3.org/2000/svg">
<path d="M86.6557 18.641C87.6003 18.641 88.3661 17.8752 88.3661 16.9306C88.3661 15.986 87.6003 15.2202 86.6557 15.2202C85.7111 15.2202 84.9453 15.986 84.9453 16.9306C84.9453 17.8752 85.7111 18.641 86.6557 18.641Z" fill="#4C241D"/>
<path d="M102.656 20.2411C103.6 20.2411 104.366 19.4753 104.366 18.5307C104.366 17.5861 103.6 16.8203 102.656 16.8203C101.711 16.8203 100.945 17.5861 100.945 18.5307C100.945 19.4753 101.711 20.2411 102.656 20.2411Z" fill="#4C241D"/>
<path d="M91.4555 25.0409C92.4001 25.0409 93.1659 24.2751 93.1659 23.3305C93.1659 22.3859 92.4001 21.6201 91.4555 21.6201C90.5109 21.6201 89.7451 22.3859 89.7451 23.3305C89.7451 24.2751 90.5109 25.0409 91.4555 25.0409Z" fill="#4C241D"/>
<path d="M56.9361 84.7888C75.9347 84.7888 91.3361 69.3874 91.3361 50.3888C91.3361 31.3902 75.9347 15.9888 56.9361 15.9888C37.9375 15.9888 22.5361 31.3902 22.5361 50.3888C22.5361 69.3874 37.9375 84.7888 56.9361 84.7888Z" fill="#EAEAEA"/>
<path d="M63.844 38.9736C69.3076 38.9736 73.7368 34.5444 73.7368 29.0808C73.7368 23.6171 69.3076 19.188 63.844 19.188C58.3803 19.188 53.9512 23.6171 53.9512 29.0808C53.9512 34.5444 58.3803 38.9736 63.844 38.9736Z" fill="#FFCE56"/>
<path d="M63.8436 40.5732C57.5068 40.5732 52.3516 35.4176 52.3516 29.0812C52.3516 22.7436 57.5072 17.5884 63.8436 17.5884C70.1812 17.5884 75.3364 22.744 75.3364 29.0812C75.3364 35.418 70.1808 40.5732 63.8436 40.5732ZM63.8436 20.7884C59.2708 20.7884 55.5516 24.5088 55.5516 29.0812C55.5516 33.6536 59.2712 37.3732 63.8436 37.3732C68.416 37.3732 72.1364 33.654 72.1364 29.0812C72.1364 24.5084 68.416 20.7884 63.8436 20.7884Z" fill="#4C241D"/>
<path d="M49.0964 35.0516L55.1308 41.0856L60.1896 36.0268L49.0964 18.96L38.0996 36.1232L43.062 41.0856L49.0964 35.0516Z" fill="white"/>
<path d="M55.1304 42.6855C54.7212 42.6855 54.3116 42.5291 53.9992 42.2167L49.096 37.3135L44.1928 42.2167C43.568 42.8415 42.5552 42.8415 41.9304 42.2167L36.968 37.2543C36.436 36.7231 36.346 35.8927 36.7524 35.2599L47.7492 18.0967C48.042 17.6387 48.5476 17.3615 49.0908 17.3599H49.0964C49.638 17.3599 50.1424 17.6343 50.438 18.0879L61.5308 35.1551C61.9424 35.7887 61.8552 36.6239 61.3208 37.1583L56.2624 42.2167C55.9492 42.5291 55.54 42.6855 55.1304 42.6855ZM40.1416 35.9019L43.062 38.8231L47.9652 33.9199C48.59 33.2951 49.6028 33.2951 50.2276 33.9199L55.1308 38.8231L58.1416 35.8123L49.1056 21.9107L40.1416 35.9019Z" fill="#4C241D"/>
<path d="M75.2449 59.1885L60.1897 36.0265L55.1309 41.0853L49.0965 35.0513L43.0621 41.0853L38.0997 36.1229L23.3213 59.1885H75.2449Z" fill="#6B4F5B"/>
<path d="M75.2446 60.7886H23.3206C22.7354 60.7886 22.197 60.4698 21.9166 59.9566C21.6362 59.4434 21.6582 58.8174 21.9738 58.3254L36.7526 35.2598C37.0134 34.8518 37.4454 34.5846 37.9278 34.5326C38.4058 34.4818 38.8878 34.649 39.231 34.9918L43.0622 38.823L47.9654 33.9198C48.5902 33.295 49.603 33.295 50.2278 33.9198L55.131 38.823L59.0582 34.8958C59.3998 34.555 59.8738 34.3902 60.3566 34.4358C60.8362 34.4866 61.2674 34.7506 61.531 35.1554L76.5866 58.317C76.9062 58.809 76.931 59.4366 76.6514 59.9522C76.3718 60.4678 75.8314 60.7886 75.2446 60.7886ZM26.2462 57.5886H72.2962L59.9242 38.555L56.2618 42.2166C55.637 42.8414 54.6242 42.8414 53.9994 42.2166L49.0962 37.3134L44.193 42.2166C43.5682 42.8414 42.5554 42.8414 41.9306 42.2166L38.3734 38.6602L26.2462 57.5886Z" fill="#4C241D"/>
<path d="M16.1357 103.989V67.4838C16.1357 62.9026 19.8493 59.189 24.4305 59.189H97.4409C102.022 59.189 105.736 62.9026 105.736 67.4838V103.989" fill="#A9BA5A"/>
<path d="M105.736 105.589C104.853 105.589 104.136 104.872 104.136 103.989V67.4833C104.136 63.7917 101.133 60.7889 97.4417 60.7889H24.4305C20.7389 60.7889 17.7361 63.7921 17.7361 67.4833V103.989C17.7361 104.872 17.0197 105.589 16.1361 105.589C15.2525 105.589 14.5361 104.872 14.5361 103.989V67.4833C14.5361 62.0277 18.9753 57.5889 24.4305 57.5889H97.4413C102.897 57.5889 107.336 62.0281 107.336 67.4833V103.989C107.336 104.872 106.62 105.589 105.736 105.589Z" fill="#4C241D"/>
<path d="M92.9359 60.7885C92.0523 60.7885 91.3359 60.0721 91.3359 59.1885V52.7885C91.3359 51.9049 92.0523 51.1885 92.9359 51.1885C93.8195 51.1885 94.5359 51.9049 94.5359 52.7885V59.1885C94.5359 60.0721 93.8195 60.7885 92.9359 60.7885Z" fill="#4C241D"/>
<path d="M92.9357 94.3885H41.7357C40.8521 94.3885 40.1357 93.6721 40.1357 92.7885C40.1357 91.9049 40.8521 91.1885 41.7357 91.1885H92.9357C93.8193 91.1885 94.5357 91.9049 94.5357 92.7885C94.5357 93.6721 93.8193 94.3885 92.9357 94.3885Z" fill="#4C241D"/>
<path d="M92.9356 35.1885L84.9355 54.3885H100.936L92.9356 35.1885Z" fill="#A9BA5A"/>
<path d="M100.936 55.9884H84.9359C84.4007 55.9884 83.9015 55.7212 83.6047 55.276C83.3079 54.8308 83.2531 54.2668 83.4595 53.7728L91.4595 34.5728C91.7079 33.9768 92.2899 33.5884 92.9359 33.5884C93.5819 33.5884 94.1639 33.9768 94.4123 34.5728L102.412 53.7728C102.619 54.2664 102.564 54.8308 102.267 55.276C101.97 55.7212 101.471 55.9884 100.936 55.9884ZM87.3359 52.7884H98.5359L92.9359 39.3484L87.3359 52.7884Z" fill="#4C241D"/>
<path d="M72.1357 78.3887H89.7358V92.7887H72.1357V78.3887Z" fill="#BF7E68"/>
<path d="M89.7361 94.3886H72.1361C71.2525 94.3886 70.5361 93.6722 70.5361 92.7886V78.3886C70.5361 77.505 71.2525 76.7886 72.1361 76.7886H89.7361C90.6197 76.7886 91.3361 77.505 91.3361 78.3886V92.7886C91.3361 93.6722 90.6197 94.3886 89.7361 94.3886ZM73.7361 91.1886H88.1361V79.9886H73.7361V91.1886Z" fill="#4C241D"/>
<path d="M59.3359 44.7886H76.936V59.1886H59.3359V44.7886Z" fill="#00CCCA"/>
<path d="M76.9363 60.7885H59.3363C58.4527 60.7885 57.7363 60.0721 57.7363 59.1885V44.7885C57.7363 43.9049 58.4527 43.1885 59.3363 43.1885H76.9363C77.8199 43.1885 78.5363 43.9049 78.5363 44.7885V59.1885C78.5363 60.0721 77.8199 60.7885 76.9363 60.7885ZM60.9363 57.5885H75.3363V46.3885H60.9363V57.5885Z" fill="#4C241D"/>
<path d="M83.3356 84.7884H78.5355C77.6519 84.7884 76.9355 84.072 76.9355 83.1884C76.9355 82.3048 77.6519 81.5884 78.5355 81.5884H83.3356C84.2192 81.5884 84.9356 82.3048 84.9356 83.1884C84.9356 84.072 84.2192 84.7884 83.3356 84.7884Z" fill="#4C241D"/>
<path d="M35.3359 67.1885H52.9359V81.5885H35.3359V67.1885Z" fill="#FC8C29"/>
<path d="M52.9363 83.1884H35.3363C34.4527 83.1884 33.7363 82.472 33.7363 81.5884V67.1884C33.7363 66.3048 34.4527 65.5884 35.3363 65.5884H52.9363C53.8199 65.5884 54.5363 66.3048 54.5363 67.1884V81.5884C54.5363 82.472 53.8199 83.1884 52.9363 83.1884ZM36.9363 79.9884H51.3363V68.7884H36.9363V79.9884Z" fill="#4C241D"/>
<path d="M46.5357 73.5887H41.7357C40.8521 73.5887 40.1357 72.8723 40.1357 71.9887C40.1357 71.1051 40.8521 70.3887 41.7357 70.3887H46.5357C47.4193 70.3887 48.1357 71.1051 48.1357 71.9887C48.1357 72.8723 47.4193 73.5887 46.5357 73.5887Z" fill="#4C241D"/>
<path d="M48.1357 78.3887H65.7358V92.7887H48.1357V78.3887Z" fill="#FFCE56"/>
<path d="M65.7361 94.3886H48.1361C47.2525 94.3886 46.5361 93.6722 46.5361 92.7886V78.3886C46.5361 77.505 47.2525 76.7886 48.1361 76.7886H65.7361C66.6197 76.7886 67.3361 77.505 67.3361 78.3886V92.7886C67.3361 93.6722 66.6197 94.3886 65.7361 94.3886ZM49.7361 91.1886H64.1361V79.9886H49.7361V91.1886Z" fill="#4C241D"/>
<path d="M59.3365 84.7884H54.5365C53.6529 84.7884 52.9365 84.072 52.9365 83.1884C52.9365 82.3048 53.6529 81.5884 54.5365 81.5884H59.3365C60.2201 81.5884 60.9365 82.3048 60.9365 83.1884C60.9365 84.072 60.2201 84.7884 59.3365 84.7884Z" fill="#4C241D"/>
<path d="M70.5357 51.1888H65.7357C64.8521 51.1888 64.1357 50.4724 64.1357 49.5888C64.1357 48.7052 64.8521 47.9888 65.7357 47.9888H70.5357C71.4193 47.9888 72.1357 48.7052 72.1357 49.5888C72.1357 50.4724 71.4193 51.1888 70.5357 51.1888Z" fill="#4C241D"/>
<path d="M38.5357 83.1888H25.7357C24.8521 83.1888 24.1357 82.4724 24.1357 81.5888C24.1357 80.7052 24.8521 79.9888 25.7357 79.9888H38.5357C39.4193 79.9888 40.1357 80.7052 40.1357 81.5888C40.1357 82.4724 39.4193 83.1888 38.5357 83.1888Z" fill="#4C241D"/>
</svg>
