<svg width="121" height="121" viewBox="0 0 121 121" fill="none" xmlns="http://www.w3.org/2000/svg">
<path d="M56.6748 89.0747C76.5571 89.0747 92.6748 72.957 92.6748 53.0747C92.6748 33.1925 76.5571 17.0747 56.6748 17.0747C36.7926 17.0747 20.6748 33.1925 20.6748 53.0747C20.6748 72.957 36.7926 89.0747 56.6748 89.0747Z" fill="#EAEAEA"/>
<path d="M102.366 18.6279C101.957 18.6279 101.548 18.4715 101.235 18.1591C100.61 17.5343 100.61 16.5207 101.235 15.8967L103.947 13.1859C104.572 12.5611 105.584 12.5611 106.209 13.1859C106.834 13.8107 106.834 14.8243 106.209 15.4483L103.498 18.1591C103.185 18.4715 102.776 18.6279 102.366 18.6279Z" fill="#4C241D"/>
<path d="M96.0402 24.9553C95.631 24.9553 95.2214 24.7989 94.909 24.4865C94.2842 23.8617 94.2842 22.8489 94.909 22.2241L97.6206 19.5125C98.2454 18.8877 99.2582 18.8877 99.883 19.5125C100.508 20.1373 100.508 21.1501 99.883 21.7749L97.1714 24.4865C96.859 24.7989 96.4494 24.9553 96.0402 24.9553Z" fill="#4C241D"/>
<path d="M98.4508 18.3279C98.0416 18.3279 97.632 18.1715 97.3196 17.8591L94.5868 15.1255C93.962 14.5007 93.962 13.4871 94.5868 12.8631C95.2116 12.2383 96.2244 12.2383 96.8492 12.8631L99.582 15.5967C100.207 16.2215 100.207 17.2351 99.582 17.8591C99.2696 18.1715 98.86 18.3279 98.4508 18.3279Z" fill="#4C241D"/>
<path d="M105.078 24.9553C104.669 24.9553 104.259 24.7989 103.947 24.4865L101.235 21.7749C100.61 21.1501 100.61 20.1373 101.235 19.5125C101.86 18.8877 102.873 18.8877 103.498 19.5125L106.209 22.2241C106.834 22.8489 106.834 23.8617 106.209 24.4865C105.897 24.7989 105.488 24.9553 105.078 24.9553Z" fill="#4C241D"/>
<path d="M64.5742 61.7605L81.9026 106.814L85.3686 89.4861L99.2314 99.8833L81.9026 51.3633L64.5742 61.7605Z" fill="#BD53B5"/>
<path d="M81.9016 108.415C81.2444 108.415 80.6484 108.011 80.4096 107.389L63.0808 62.335C62.8012 61.6102 63.084 60.789 63.7504 60.389L81.0792 49.9914C81.4908 49.7446 81.9916 49.6962 82.4416 49.857C82.8932 50.0178 83.248 50.3734 83.4096 50.825L100.738 99.3454C100.975 100.01 100.748 100.753 100.18 101.172C99.6124 101.591 98.836 101.587 98.2704 101.163L86.4392 92.289L83.4712 107.129C83.332 107.827 82.7476 108.349 82.0384 108.409C81.9924 108.413 81.9468 108.415 81.9016 108.415ZM66.5492 62.4414L81.4156 101.091L83.7992 89.1718C83.9072 88.6334 84.2836 88.1874 84.7968 87.9914C85.3092 87.7938 85.8884 87.8766 86.328 88.2062L95.9344 95.411L81.0524 53.739L66.5492 62.4414Z" fill="#4C241D"/>
<path d="M63.1767 61.76L45.8483 106.814L42.3827 89.4856L28.5195 99.8828L45.8483 51.3628L63.1767 61.76Z" fill="#BD53B5"/>
<path d="M45.8481 108.414C45.8029 108.414 45.7573 108.412 45.7113 108.408C45.0021 108.348 44.4177 107.826 44.2785 107.128L41.3105 92.288L29.4793 101.162C28.9137 101.586 28.1373 101.59 27.5701 101.171C27.0013 100.751 26.7749 100.009 27.0121 99.3444L44.3401 50.824C44.5017 50.3724 44.8565 50.0168 45.3081 49.856C45.7581 49.6952 46.2589 49.7436 46.6705 49.9904L63.9993 60.388C64.6657 60.788 64.9485 61.6092 64.6689 62.334L47.3401 107.388C47.1013 108.01 46.5053 108.414 45.8481 108.414ZM42.3817 87.8852C42.5737 87.8852 42.7677 87.9196 42.9529 87.9908C43.4661 88.1868 43.8429 88.6328 43.9505 89.1712L46.3341 101.091L61.2005 62.4408L46.6973 53.7384L31.8153 95.4104L41.4217 88.2056C41.7029 87.9948 42.0405 87.8852 42.3817 87.8852Z" fill="#4C241D"/>
<path d="M64.0001 20.3927L64.8393 19.8643C68.5885 17.5023 73.5917 18.7791 75.6965 22.6347L75.9241 23.0515L77.0801 22.8907C81.7617 22.2399 85.9149 25.8799 85.7873 30.5219L85.7861 30.5675L86.8017 30.7899C91.6861 31.8599 94.2213 37.1771 91.9309 41.5471L91.8813 41.6419L92.4877 42.0079C96.8593 44.6483 97.3897 50.6867 93.5429 54.0235L93.1557 54.3595L93.3245 54.5679C96.4885 58.4795 94.9497 64.2787 90.2445 66.1763L89.3889 66.5215C90.6565 71.1415 87.2569 75.7307 82.3913 75.9679L81.2317 76.0243L81.1821 76.2343C80.1493 80.5947 75.4841 83.1023 71.1881 81.6063L70.0953 81.2259L69.5533 81.7891C66.5385 84.9231 61.4613 84.9231 58.4465 81.7891L57.9045 81.2259L56.8117 81.6063C52.5157 83.1023 47.8505 80.5947 46.8177 76.2343L46.7681 76.0243L45.6085 75.9679C40.7429 75.7307 37.3433 71.1411 38.6109 66.5215L37.7553 66.1763C33.0501 64.2787 31.5113 58.4795 34.6753 54.5679L34.8441 54.3595L34.4569 54.0235C30.6101 50.6867 31.1405 44.6483 35.5121 42.0079L36.1185 41.6419L36.0689 41.5471C33.7785 37.1767 36.3137 31.8599 41.1981 30.7899L42.2137 30.5675L42.2125 30.5219C42.0853 25.8799 46.2385 22.2399 50.9197 22.8907L52.0757 23.0515L52.3033 22.6347C54.4081 18.7791 59.4113 17.5023 63.1605 19.8643L64.0001 20.3927Z" fill="#B5A19C"/>
<path d="M64.0002 85.7397C61.5206 85.7397 59.2094 84.7945 57.4666 83.0725L57.3394 83.1169C54.8442 83.9889 52.0814 83.7589 49.7658 82.4889C47.7922 81.4069 46.2946 79.6461 45.5478 77.5669L45.5298 77.5661C42.6938 77.4277 40.1198 76.0417 38.4682 73.7637C37.1386 71.9285 36.5582 69.7097 36.7994 67.5073C34.2502 66.3573 32.4042 64.1829 31.7058 61.4869C31.087 59.1017 31.459 56.6417 32.7198 54.5713C30.9582 52.6985 30.0854 50.2189 30.3074 47.6321C30.5386 44.9429 31.9138 42.5657 34.1122 41.0133C33.3538 38.7877 33.4778 36.4329 34.4654 34.3141C35.657 31.7593 37.9138 29.9281 40.677 29.2673C40.9378 27.0745 41.9786 25.0649 43.6362 23.5813C45.677 21.7565 48.4082 20.9265 51.1402 21.3057L51.2262 21.3173C52.467 19.3853 54.4222 17.9641 56.6778 17.3773C59.1654 16.7305 61.8334 17.1397 64.0006 18.5009C66.1694 17.1409 68.8366 16.7321 71.3234 17.3773C73.579 17.9641 75.5342 19.3845 76.775 21.3173L76.8594 21.3057C79.5906 20.9205 82.325 21.7557 84.365 23.5813C86.0314 25.0729 87.0742 27.0953 87.3298 29.2689C90.0906 29.9313 92.3454 31.7609 93.5362 34.3141C94.533 36.4533 94.651 38.8329 93.8978 41.0197C96.0906 42.5721 97.4634 44.9461 97.6938 47.6321C97.9158 50.2189 97.043 52.6993 95.2806 54.5713C96.5422 56.6425 96.9142 59.1017 96.2954 61.4869C95.597 64.1821 93.7502 66.3573 91.2018 67.5073C91.4434 69.7097 90.8626 71.9285 89.533 73.7637C87.8814 76.0417 85.3074 77.4277 82.4706 77.5661L82.4534 77.5669C81.7058 79.6465 80.2082 81.4077 78.2354 82.4889C75.919 83.7577 73.159 83.9873 70.6618 83.1169L70.5346 83.0725C68.791 84.7945 66.4798 85.7397 64.0002 85.7397ZM57.905 79.6257C58.3322 79.6257 58.751 79.7977 59.0582 80.1165L59.6002 80.6797C60.7534 81.8797 62.3158 82.5397 64.0002 82.5397C65.6846 82.5397 67.247 81.8797 68.4002 80.6797L68.9422 80.1165C69.3766 79.6673 70.0322 79.5109 70.6218 79.7149L71.7138 80.0953C73.3574 80.6705 75.173 80.5173 76.6958 79.6837C78.1966 78.8609 79.2366 77.5049 79.6246 75.8657L79.673 75.6585C79.8362 74.9641 80.4394 74.4617 81.1518 74.4265L82.3118 74.3693C84.175 74.2785 85.8618 73.3741 86.9398 71.8857C87.9818 70.4481 88.3118 68.6473 87.8446 66.9449C87.6298 66.1621 88.0354 65.3417 88.7882 65.0377L89.6438 64.6925C91.4282 63.9729 92.7226 62.5121 93.1962 60.6841C93.6618 58.8897 93.2546 57.0269 92.0798 55.5741L91.9126 55.3685C91.3682 54.6981 91.4542 53.7169 92.1062 53.1513L92.4938 52.8153C93.9322 51.5677 94.6642 49.7785 94.5038 47.9069C94.3422 46.0225 93.3054 44.3717 91.6594 43.3781L91.053 43.0117C90.3274 42.5725 90.0694 41.6437 90.4662 40.8937C91.359 39.1897 91.403 37.3173 90.6334 35.6665C89.8418 33.9689 88.3202 32.7609 86.4582 32.3533L85.4434 32.1313C84.6886 31.9665 84.1598 31.2861 84.1854 30.5141C84.2338 28.7665 83.5198 27.1225 82.2282 25.9665C80.8898 24.7689 79.0962 24.2281 77.2986 24.4757L76.1438 24.6357C75.4838 24.7341 74.8382 24.4029 74.519 23.8193L74.291 23.4021C73.4934 21.9397 72.1526 20.9005 70.5154 20.4749C68.8538 20.0421 67.139 20.3069 65.691 21.2177L64.851 21.7457C64.3306 22.0737 63.6666 22.0737 63.1462 21.7457L62.307 21.2177C60.8602 20.3069 59.147 20.0421 57.4822 20.4749C55.8446 20.9005 54.5042 21.9397 53.707 23.4005L53.4782 23.8193C53.1586 24.4029 52.5062 24.7341 51.8538 24.6357L50.6974 24.4749C48.9046 24.2273 47.1066 24.7685 45.7686 25.9665C44.477 27.1229 43.763 28.7665 43.8102 30.4781C43.8314 31.2461 43.3046 31.9673 42.5538 32.1313L41.5382 32.3533C39.6774 32.7613 38.1554 33.9689 37.3638 35.6665C36.5942 37.3173 36.6382 39.1901 37.4842 40.8057C37.877 41.5541 37.6686 42.5745 36.9442 43.0121L36.3378 43.3785C34.6918 44.3721 33.655 46.0229 33.4934 47.9073C33.3334 49.7793 34.0654 51.5681 35.5034 52.8157L35.891 53.1517C36.5434 53.7173 36.6294 54.6985 36.0846 55.3689L35.9158 55.5769C34.7422 57.0277 34.3354 58.8901 34.801 60.6849C35.2746 62.5129 36.569 63.9741 38.3518 64.6933L39.2082 65.0385C39.9614 65.3425 40.3674 66.1621 40.1526 66.9457C39.6854 68.6481 40.015 70.4489 41.0574 71.8865C42.1354 73.3749 43.8222 74.2793 45.6846 74.3701L46.8446 74.4273C47.5546 74.4625 48.157 74.9625 48.3218 75.6537L48.3718 75.8629C48.761 77.5049 49.8006 78.8613 51.3014 79.6841C52.825 80.5177 54.6414 80.6701 56.2834 80.0957L57.3754 79.7153C57.551 79.6545 57.7282 79.6257 57.905 79.6257Z" fill="#4C241D"/>
<path d="M20.9117 27.748C18.7937 27.748 16.8313 26.3728 16.1861 24.244C15.8041 22.9824 15.9353 21.6472 16.5573 20.4848C17.1793 19.3224 18.2165 18.4716 19.4785 18.0896C22.0801 17.2988 24.8425 18.7772 25.6325 21.3812C26.4217 23.9852 24.9449 26.746 22.3409 27.536C21.8657 27.6796 21.3845 27.748 20.9117 27.748ZM20.9081 21.0772C20.7417 21.0772 20.5729 21.1016 20.4057 21.1524C19.9621 21.2868 19.5977 21.586 19.3793 21.9944C19.1609 22.4028 19.1145 22.8724 19.2489 23.3164C19.5261 24.232 20.4997 24.7532 21.4129 24.4736C22.3285 24.1964 22.8473 23.2252 22.5701 22.3096C22.3425 21.5608 21.6525 21.0772 20.9081 21.0772Z" fill="#4C241D"/>
<path d="M16.7922 91.8442C16.383 91.8442 15.9734 91.6878 15.661 91.3754C15.0362 90.751 15.0362 89.7378 15.661 89.113L20.3774 84.3958C21.0022 83.771 22.015 83.771 22.6398 84.3958C23.2646 85.0202 23.2646 86.0334 22.6398 86.6582L17.9234 91.3754C17.6106 91.6878 17.2014 91.8442 16.7922 91.8442Z" fill="#4C241D"/>
<path d="M21.5086 91.8442C21.0994 91.8442 20.6898 91.6878 20.3774 91.3754L15.661 86.6582C15.0362 86.0334 15.0362 85.0198 15.661 84.3958C16.2858 83.771 17.2986 83.771 17.9234 84.3958L22.6398 89.113C23.2646 89.7378 23.2646 90.7514 22.6398 91.3754C22.327 91.6878 21.9178 91.8442 21.5086 91.8442Z" fill="#4C241D"/>
<path d="M63.875 37.8749C63.5374 37.8749 63.1994 37.7677 62.915 37.5545L56.515 32.7545C55.8078 32.2249 55.665 31.2217 56.1954 30.5145C56.725 29.8097 57.7274 29.6629 58.4354 30.1949L63.8754 34.2745L69.3154 30.1949C70.0246 29.6629 71.0262 29.8097 71.5554 30.5145C72.0858 31.2217 71.943 32.2245 71.2358 32.7545L64.8358 37.5545C64.5506 37.7677 64.2122 37.8749 63.875 37.8749Z" fill="#4C241D"/>
<path d="M69.1885 48.2965C70.3489 47.0181 71.0749 45.3373 71.0749 43.4749C71.0749 39.4985 67.8513 36.2749 63.8749 36.2749C59.8985 36.2749 56.6749 39.4985 56.6749 43.4749C56.6749 45.3373 57.4009 47.0185 58.5613 48.2965C57.3241 50.5889 56.5605 53.6729 56.5605 57.0749C56.5605 64.1441 63.8749 69.8749 63.8749 69.8749C63.8749 69.8749 71.1893 64.1441 71.1893 57.0749C71.1889 53.6729 70.4257 50.5889 69.1885 48.2965Z" fill="#FFCE56"/>
<path d="M63.8749 71.4748C63.5265 71.4748 63.1781 71.3616 62.8881 71.134C62.5645 70.8808 54.9609 64.834 54.9609 57.0748C54.9609 53.9624 55.5665 50.9608 56.6781 48.4996C55.6381 47.0224 55.0749 45.274 55.0749 43.4748C55.0749 38.6224 59.0225 34.6748 63.8749 34.6748C68.7273 34.6748 72.6749 38.6224 72.6749 43.4748C72.6749 45.274 72.1117 47.0224 71.0717 48.4996C72.1833 50.9604 72.7889 53.962 72.7889 57.0748C72.7889 64.834 65.1849 70.8812 64.8617 71.134C64.5717 71.3616 64.2233 71.4748 63.8749 71.4748ZM63.8749 37.8748C60.7873 37.8748 58.2749 40.3872 58.2749 43.4748C58.2749 44.846 58.7977 46.1764 59.7461 47.2208C60.2025 47.7232 60.2921 48.4592 59.9697 49.0568C58.8033 51.2168 58.1613 54.0648 58.1613 57.0748C58.1613 61.7896 62.0105 65.9872 63.8753 67.7436C65.7401 65.9872 69.5893 61.7896 69.5893 57.0748C69.5893 54.0648 68.9473 51.2168 67.7809 49.0568C67.4581 48.4592 67.5481 47.7232 68.0045 47.2208C68.9529 46.1764 69.4757 44.8456 69.4757 43.4748C69.4749 40.3872 66.9621 37.8748 63.8749 37.8748Z" fill="#4C241D"/>
<path d="M79.0461 61.0896C80.8144 59.3213 79.0616 54.7014 75.131 50.7708C71.2004 46.8403 66.5806 45.0874 64.8122 46.8558C63.0439 48.6241 64.7967 53.244 68.7273 57.1746C72.6579 61.1051 77.2778 62.858 79.0461 61.0896Z" fill="white"/>
<path d="M77.1494 63.3539C74.4298 63.3539 70.8518 61.5459 67.6094 58.3039C62.9062 53.6007 61.2226 48.1915 63.6938 45.7211C66.1642 43.2499 71.5734 44.9335 76.2766 49.6367C80.979 54.3399 82.6626 59.7491 80.1922 62.2195C79.4254 62.9867 78.3746 63.3539 77.1494 63.3539ZM66.747 47.7539C66.3782 47.7539 66.1062 47.8335 65.9562 47.9835C65.2266 48.7139 66.1586 52.3271 69.8718 56.0415C73.5834 59.7531 77.1982 60.6883 77.9298 59.9571C78.6594 59.2275 77.7274 55.6135 74.0142 51.8991C71.0626 48.9483 68.1754 47.7539 66.747 47.7539Z" fill="#4C241D"/>
<path d="M59.133 57.173C63.0636 53.2424 64.8164 48.6225 63.0481 46.8542C61.2797 45.0859 56.6598 46.8387 52.7293 50.7693C48.7987 54.6999 47.0458 59.3198 48.8142 61.0881C50.5825 62.8564 55.2024 61.1036 59.133 57.173Z" fill="white"/>
<path d="M50.7534 63.3776C49.509 63.3776 48.4634 62.9892 47.6942 62.2196C46.367 60.8932 46.1738 58.7452 47.1498 56.172C47.9678 54.0156 49.5522 51.6948 51.6098 49.6368C56.3122 44.9344 61.723 43.2516 64.1925 45.7212C66.6621 48.1916 64.9793 53.6008 60.277 58.304C58.219 60.362 55.8982 61.946 53.7418 62.764C52.661 63.1744 51.655 63.3776 50.7534 63.3776ZM61.1394 47.754C59.7122 47.754 56.8238 48.9484 53.8722 51.8992C52.1526 53.6188 50.7934 55.59 50.1418 57.3072C49.6026 58.7268 49.6606 59.6612 49.9566 59.9572C50.2526 60.2548 51.1878 60.3104 52.6066 59.772C54.3238 59.1204 56.295 57.7612 58.0146 56.0416C61.7278 52.3276 62.6597 48.7136 61.9301 47.9836C61.7797 47.8336 61.5082 47.754 61.1394 47.754ZM59.1454 57.1728H59.161H59.1454Z" fill="#4C241D"/>
</svg>
