<svg width="121" height="121" viewBox="0 0 121 121" fill="none" xmlns="http://www.w3.org/2000/svg">
<path d="M12.8149 83.2732C12.6977 94.856 33.7269 104.46 59.7845 104.723C85.8421 104.987 107.061 95.8108 107.178 84.2276L107.183 83.5576C107.207 79.8116 104.181 76.7508 100.414 76.7124L19.7257 75.8964C15.9401 75.858 12.8441 78.886 12.8193 82.6504L12.8149 83.2732Z" fill="#6B4F5B"/>
<path d="M60.9088 106.329C60.5276 106.329 60.1508 106.327 59.7696 106.323C32.4164 106.046 11.0916 95.9146 11.2164 83.2582L11.2196 82.6426C11.2352 80.3982 12.126 78.295 13.7276 76.719C15.3196 75.1542 17.4212 74.2954 19.654 74.2954H19.7416L100.431 75.1118C105.068 75.1586 108.815 78.9526 108.784 83.5682L108.779 84.2386C108.652 96.7242 87.7168 106.328 60.9088 106.329ZM19.654 77.4958C18.2664 77.4958 16.9604 78.0286 15.9712 79.0014C14.9804 79.9766 14.4292 81.2758 14.4196 82.6614L14.4164 83.281V83.2894C14.31 93.7902 35.0944 102.873 59.8008 103.123C84.5304 103.358 105.473 94.7122 105.579 84.2114L105.584 83.5466C105.602 80.6894 103.277 78.341 100.399 78.3122L19.7104 77.4958C19.6916 77.4958 19.6728 77.4958 19.654 77.4958ZM12.8168 83.2734H12.8324H12.8168Z" fill="#4C241D"/>
<path d="M16.3159 47.9926C17.2605 47.9926 18.0263 47.2268 18.0263 46.2822C18.0263 45.3376 17.2605 44.5718 16.3159 44.5718C15.3712 44.5718 14.6055 45.3376 14.6055 46.2822C14.6055 47.2268 15.3712 47.9926 16.3159 47.9926Z" fill="#4C241D"/>
<path d="M65.5139 87.5111C85.838 87.5111 102.314 71.0352 102.314 50.7111C102.314 30.3871 85.838 13.9111 65.5139 13.9111C45.1898 13.9111 28.7139 30.3871 28.7139 50.7111C28.7139 71.0352 45.1898 87.5111 65.5139 87.5111Z" fill="#EAEAEA"/>
<path d="M19.2015 81.4838C19.1079 90.7614 37.2907 98.4674 59.8139 98.6954C82.3371 98.9234 100.672 91.5866 100.766 82.309L100.769 81.7722C100.788 78.7714 98.1699 76.3178 94.9139 76.285L25.1699 75.5794C21.8979 75.5462 19.2235 77.9694 19.2047 80.985L19.2015 81.4838Z" fill="#FFDED5"/>
<path d="M60.8398 100.301C60.493 100.301 60.1446 100.298 59.7978 100.295C48.6994 100.184 38.2602 98.2871 30.401 94.9567C22.0962 91.4363 17.551 86.6475 17.601 81.4699L17.6042 80.9747C17.6166 79.1707 18.3526 77.4599 19.6762 76.1583C21.1042 74.7527 23.123 73.9895 25.1854 73.9795L94.929 74.6851C99.0554 74.7267 102.393 77.9107 102.37 81.7827L102.367 82.3187C102.313 87.5031 97.673 92.2007 89.2962 95.5523C81.6194 98.6235 71.5494 100.301 60.8398 100.301ZM25.1054 77.1795C23.8946 77.1795 22.7366 77.6375 21.9194 78.4395C21.207 79.1411 20.8102 80.0487 20.8038 80.9959L20.8006 81.4935V81.4999C20.763 85.2415 24.7178 89.0719 31.649 92.0099C39.1318 95.1811 49.1398 96.9871 59.8286 97.0951C70.5254 97.1803 80.5598 95.6007 88.1066 92.5811C95.0974 89.7843 99.1286 86.0343 99.1658 82.2927L99.169 81.7631C99.1814 79.6483 97.2658 77.9083 94.897 77.8851L25.1534 77.1795C25.1366 77.1795 25.121 77.1795 25.1054 77.1795ZM19.201 81.4835H19.2166H19.201Z" fill="#4C241D"/>
<path d="M41.5141 23.5113C40.6297 23.5113 39.9141 22.7949 39.9141 21.9113V18.7113C39.9141 17.8277 40.6297 17.1113 41.5141 17.1113C42.3985 17.1113 43.1141 17.8277 43.1141 18.7113V21.9113C43.1141 22.7949 42.3985 23.5113 41.5141 23.5113Z" fill="#4C241D"/>
<path d="M41.5141 33.1109C40.6297 33.1109 39.9141 32.3945 39.9141 31.5109V28.3109C39.9141 27.4273 40.6297 26.7109 41.5141 26.7109C42.3985 26.7109 43.1141 27.4273 43.1141 28.3109V31.5109C43.1141 32.3945 42.3985 33.1109 41.5141 33.1109Z" fill="#4C241D"/>
<path d="M20.8021 75.1057C20.7085 84.3838 38.1749 92.0822 59.8145 92.301C81.4541 92.5198 99.0729 85.1762 99.1669 75.8981L99.1705 75.3614C99.1901 72.3605 96.6753 69.9081 93.5473 69.8765L26.5393 69.1985C23.3957 69.1669 20.8253 71.5909 20.8057 74.6065L20.8021 75.1057Z" fill="#FFDED5"/>
<path d="M60.7592 93.9064C60.4388 93.9064 60.1184 93.9048 59.7984 93.9016C36.9312 93.6696 19.1 85.4088 19.2016 75.0932L19.2048 74.5972C19.2172 72.7528 19.9596 71.0136 21.2956 69.7004C22.694 68.3252 24.594 67.6216 26.5548 67.5996L93.5628 68.2776C97.5612 68.3176 100.794 71.5004 100.771 75.372L100.768 75.908C100.716 81.0824 96.2472 85.7784 88.1864 89.1384C80.7872 92.222 71.0796 93.9064 60.7592 93.9064ZM26.4764 70.7992C25.3576 70.7992 24.3156 71.218 23.5388 71.982C22.814 72.6944 22.4108 73.6304 22.4044 74.618L22.4012 75.1164V75.1228C22.326 82.462 37.3496 90.4736 59.8292 90.7016C70.1432 90.7952 79.7184 89.2008 86.954 86.1844C93.6604 83.3892 97.5292 79.6344 97.5664 75.882L97.5696 75.3524C97.582 73.2376 95.7712 71.5 93.5304 71.4772L26.5224 70.7992C26.5076 70.7992 26.492 70.7992 26.4764 70.7992ZM20.8016 75.1064H20.8172H20.8016Z" fill="#4C241D"/>
<path d="M38.3137 26.7112H35.1137C34.2293 26.7112 33.5137 25.9948 33.5137 25.1112C33.5137 24.2276 34.2293 23.5112 35.1137 23.5112H38.3137C39.1981 23.5112 39.9137 24.2276 39.9137 25.1112C39.9137 25.9948 39.1981 26.7112 38.3137 26.7112Z" fill="#4C241D"/>
<path d="M47.9133 26.7112H44.7133C43.8289 26.7112 43.1133 25.9948 43.1133 25.1112C43.1133 24.2276 43.8289 23.5112 44.7133 23.5112H47.9133C48.7977 23.5112 49.5133 24.2276 49.5133 25.1112C49.5133 25.9948 48.7977 26.7112 47.9133 26.7112Z" fill="#4C241D"/>
<path d="M22.4008 68.7284C22.3072 78.0064 39.0572 85.6976 59.8136 85.9076C80.57 86.1176 97.472 78.7664 97.566 69.4888L97.5696 68.952C97.5896 65.9512 95.1788 63.5 92.178 63.4696L27.906 62.8196C24.8908 62.7892 22.4244 65.2144 22.4044 68.23L22.4008 68.7284Z" fill="#FFDED5"/>
<path d="M60.6846 87.5115C60.3878 87.5115 60.0938 87.5099 59.797 87.5067C49.5378 87.4027 39.8862 85.5083 32.6206 82.1723C24.947 78.6487 20.7502 73.8691 20.8002 68.7143L20.8034 68.2191C20.8158 66.3307 21.5642 64.5627 22.9098 63.2403C24.2378 61.9347 25.9894 61.2183 27.8474 61.2183H27.921L92.193 61.8691C96.0667 61.9075 99.1962 65.0895 99.1694 68.9619L99.1663 69.4971C99.1146 74.6603 94.821 79.3551 87.0754 82.7219C79.955 85.8195 70.613 87.5111 60.6846 87.5115ZM27.849 64.4187C26.835 64.4187 25.8786 64.8095 25.1538 65.5219C24.4194 66.2447 24.0102 67.2103 24.0038 68.2407L24.0006 68.7383V68.7447C23.963 72.5071 27.5914 76.3415 33.9554 79.2643C40.8226 82.4175 50.0102 84.2079 59.829 84.3071C69.6682 84.3987 78.8711 82.8023 85.801 79.7883C92.2231 76.9955 95.9291 73.2351 95.9667 69.4719L95.9698 68.9423C95.9838 66.8275 94.2762 65.0907 92.1618 65.0695L27.8898 64.4187C27.8754 64.4187 27.863 64.4187 27.849 64.4187ZM22.4006 68.7283H22.4162H22.4006Z" fill="#4C241D"/>
<path d="M98.3129 39.511C95.2253 39.511 92.7129 36.9986 92.7129 33.911C92.7129 30.8234 95.2253 28.311 98.3129 28.311C101.4 28.311 103.913 30.8234 103.913 33.911C103.913 36.9986 101.4 39.511 98.3129 39.511ZM98.3129 31.511C96.9893 31.511 95.9129 32.5874 95.9129 33.911C95.9129 35.2346 96.9893 36.311 98.3129 36.311C99.6365 36.311 100.713 35.2346 100.713 33.911C100.713 32.5874 99.6361 31.511 98.3129 31.511Z" fill="#4C241D"/>
<path d="M107.515 60.7924C108.46 60.7924 109.225 60.0266 109.225 59.082C109.225 58.1374 108.46 57.3716 107.515 57.3716C106.57 57.3716 105.805 58.1374 105.805 59.082C105.805 60.0266 106.57 60.7924 107.515 60.7924Z" fill="#4C241D"/>
<path d="M23.9975 62.3511C23.9039 71.6291 39.9399 79.3131 59.8151 79.5143C79.6903 79.7155 95.8783 72.3571 95.9723 63.0791L96.0127 57.1147L24.0379 56.3867L23.9975 62.3511Z" fill="#FFDED5"/>
<path d="M60.6281 81.1181C60.3517 81.1181 60.0749 81.1165 59.7985 81.1141C38.7233 80.9001 22.2969 72.6541 22.3969 62.3389L22.4377 56.3749C22.4409 55.9501 22.6129 55.5429 22.9157 55.2453C23.2157 54.9509 23.6189 54.7861 24.0377 54.7861H24.0533L96.0269 55.5141C96.9081 55.5233 97.6177 56.2429 97.6113 57.1241L97.5721 63.0889C97.4689 73.2761 81.3077 81.1181 60.6281 81.1181ZM25.6265 58.0025L25.5969 62.3617V62.3673C25.5141 70.6057 41.1905 77.7253 59.8297 77.9141C78.4641 78.0797 94.2889 71.3009 94.3717 63.0625L94.3997 58.6977L25.6265 58.0025ZM23.9969 62.3509H24.0125H23.9969Z" fill="#4C241D"/>
<path d="M95.915 56.6013C95.915 47.3229 79.7974 39.8013 59.915 39.8013C40.0326 39.8013 23.915 47.3229 23.915 56.6013C23.915 61.8481 29.0718 66.5317 37.1474 69.6121C39.7654 70.6105 41.515 73.1025 41.515 75.9045V82.2013C41.515 84.4105 43.3058 86.2013 45.515 86.2013C47.7242 86.2013 49.515 84.4105 49.515 82.2013V78.1165C49.515 75.5029 51.6326 73.3833 54.2462 73.3809H54.375C56.9922 73.3785 59.1154 75.4993 59.1154 78.1165C59.1154 79.9309 60.5862 81.4017 62.4006 81.4017H63.9154C66.5662 81.4017 68.7154 79.2525 68.7154 76.6017C68.7154 74.5073 70.2366 72.7317 72.301 72.3789C86.0806 70.0221 95.915 63.8485 95.915 56.6013Z" fill="#FFCE56"/>
<path d="M45.5145 87.8017C42.4269 87.8017 39.9145 85.2893 39.9145 82.2017V75.9049C39.9145 73.7969 38.5737 71.8689 36.5769 71.1065C27.5129 67.6509 22.3145 62.3637 22.3145 56.6017C22.3145 46.2837 38.8301 38.2017 59.9145 38.2017C80.9988 38.2017 97.5145 46.2837 97.5145 56.6017C97.5145 64.5525 87.7236 71.3641 72.5708 73.9557C71.2628 74.1793 70.3144 75.2917 70.3144 76.6017C70.3144 80.1305 67.444 83.0017 63.9145 83.0017H62.3988C59.7052 83.0017 57.5145 80.8101 57.5145 78.1165C57.5145 77.2781 57.188 76.4909 56.594 75.8985C56.002 75.3065 55.2161 74.9805 54.3785 74.9805C54.3769 74.9805 54.3769 74.9805 54.3752 74.9805C52.5204 74.9829 51.1145 76.3889 51.1145 78.1165V82.2017C51.1145 85.2893 48.6021 87.8017 45.5145 87.8017ZM59.9145 41.4017C41.2677 41.4017 25.5145 48.3625 25.5145 56.6017C25.5145 60.8985 30.0769 65.2033 37.7177 68.1165C40.9457 69.3493 43.1145 72.4789 43.1145 75.9049V82.2017C43.1145 83.5253 44.1909 84.6017 45.5145 84.6017C46.8381 84.6017 47.9145 83.5253 47.9145 82.2017V78.1165C47.9145 74.6265 50.7536 71.7845 54.244 71.7805H54.2505C56.0692 71.7805 57.6597 72.4385 58.8569 73.6345C60.0553 74.8313 60.7148 76.4229 60.7148 78.1165C60.7148 79.0453 61.4712 79.8017 62.3992 79.8017H63.9148C65.6788 79.8017 67.1148 78.3665 67.1148 76.6017C67.1148 73.7281 69.182 71.2885 72.0304 70.8009C85.1508 68.5581 94.3148 62.7189 94.3148 56.6017C94.3144 48.3625 78.5612 41.4017 59.9145 41.4017Z" fill="#4C241D"/>
<path d="M44.7146 100.311C42.9474 100.311 41.5146 98.8786 41.5146 97.1114V93.9114C41.5146 92.1442 42.9474 90.7114 44.7146 90.7114C46.4818 90.7114 47.9146 92.1442 47.9146 93.9114V97.1114C47.9146 98.8786 46.4818 100.311 44.7146 100.311Z" fill="#FFCE56"/>
<path d="M44.7141 101.911C42.0673 101.911 39.9141 99.7581 39.9141 97.1113V93.9113C39.9141 91.2645 42.0673 89.1113 44.7141 89.1113C47.3609 89.1113 49.5141 91.2645 49.5141 93.9113V97.1113C49.5141 99.7581 47.3609 101.911 44.7141 101.911ZM44.7141 92.3113C43.8313 92.3113 43.1141 93.0293 43.1141 93.9113V97.1113C43.1141 97.9933 43.8313 98.7113 44.7141 98.7113C45.5969 98.7113 46.3141 97.9933 46.3141 97.1113V93.9113C46.3141 93.0289 45.5969 92.3113 44.7141 92.3113Z" fill="#4C241D"/>
<path d="M35.115 53.1424C34.6102 53.1424 34.1134 52.904 33.8026 52.4588C33.2962 51.7344 33.473 50.7368 34.1962 50.2308C38.5634 47.1792 46.293 45.0848 55.4042 44.484C56.2806 44.426 57.0462 45.0924 57.1058 45.9756C57.1638 46.8576 56.4966 47.6192 55.6138 47.678C47.195 48.2328 39.8746 50.168 36.031 52.8544C35.751 53.0484 35.4306 53.1424 35.115 53.1424Z" fill="white"/>
<path d="M71.0891 48.2062C71.0155 48.2062 70.9407 48.2014 70.8655 48.1906C67.6327 47.7398 64.2171 47.511 60.7123 47.511C59.8279 47.511 59.1123 46.7946 59.1123 45.911C59.1123 45.0274 59.8279 44.311 60.7123 44.311C64.3639 44.311 67.9295 44.5502 71.3091 45.0218C72.1843 45.1438 72.7935 45.9522 72.6715 46.8274C72.5611 47.6274 71.8751 48.2062 71.0891 48.2062Z" fill="white"/>
</svg>
