<svg width="121" height="121" viewBox="0 0 121 121" fill="none" xmlns="http://www.w3.org/2000/svg">
<path d="M50.2629 86.5199C70.587 86.5199 87.0629 70.044 87.0629 49.7199C87.0629 29.3958 70.587 12.9199 50.2629 12.9199C29.9388 12.9199 13.4629 29.3958 13.4629 49.7199C13.4629 70.044 29.9388 86.5199 50.2629 86.5199Z" fill="#EAEAEA"/>
<path d="M59.0629 24.1199C55.9753 24.1199 53.4629 21.6075 53.4629 18.5199C53.4629 15.4323 55.9753 12.9199 59.0629 12.9199C62.1505 12.9199 64.6629 15.4323 64.6629 18.5199C64.6629 21.6075 62.1505 24.1199 59.0629 24.1199ZM59.0629 16.1199C57.7393 16.1199 56.6629 17.1963 56.6629 18.5199C56.6629 19.8435 57.7393 20.9199 59.0629 20.9199C60.3865 20.9199 61.4629 19.8435 61.4629 18.5199C61.4629 17.1963 60.3865 16.1199 59.0629 16.1199Z" fill="#4C241D"/>
<path d="M37.8647 18.2011C38.8093 18.2011 39.5751 17.4353 39.5751 16.4907C39.5751 15.546 38.8093 14.7803 37.8647 14.7803C36.9201 14.7803 36.1543 15.546 36.1543 16.4907C36.1543 17.4353 36.9201 18.2011 37.8647 18.2011Z" fill="#4C241D"/>
<path d="M66.6655 74.2011C67.6101 74.2011 68.3759 73.4353 68.3759 72.4907C68.3759 71.546 67.6101 70.7803 66.6655 70.7803C65.7208 70.7803 64.9551 71.546 64.9551 72.4907C64.9551 73.4353 65.7208 74.2011 66.6655 74.2011Z" fill="#4C241D"/>
<path d="M87.0629 96.1196C86.1785 96.1196 85.4629 95.4032 85.4629 94.5196V49.7196C85.4629 48.836 86.1785 48.1196 87.0629 48.1196C87.9473 48.1196 88.6629 48.836 88.6629 49.7196V94.5196C88.6629 95.4032 87.9473 96.1196 87.0629 96.1196Z" fill="#4C241D"/>
<path d="M76.3802 35.32C80.5948 35.32 84.0114 31.9034 84.0114 27.6888C84.0114 23.4742 80.5948 20.0576 76.3802 20.0576C72.1656 20.0576 68.749 23.4742 68.749 27.6888C68.749 31.9034 72.1656 35.32 76.3802 35.32Z" fill="#BD53B5"/>
<path d="M76.3796 36.9199C71.2888 36.9199 67.1484 32.7783 67.1484 27.6887C67.1484 22.5991 71.2892 18.4575 76.3796 18.4575C81.47 18.4575 85.6108 22.5991 85.6108 27.6887C85.6108 32.7783 81.47 36.9199 76.3796 36.9199ZM76.3796 21.6575C73.0548 21.6575 70.3484 24.3631 70.3484 27.6887C70.3484 31.0143 73.0544 33.7199 76.3796 33.7199C79.7048 33.7199 82.4108 31.0143 82.4108 27.6887C82.4108 24.3631 79.7044 21.6575 76.3796 21.6575Z" fill="#4C241D"/>
<path d="M86.9886 30.6677C91.2032 30.6677 94.6198 27.2511 94.6198 23.0365C94.6198 18.8219 91.2032 15.4053 86.9886 15.4053C82.774 15.4053 79.3574 18.8219 79.3574 23.0365C79.3574 27.2511 82.774 30.6677 86.9886 30.6677Z" fill="#BD53B5"/>
<path d="M86.989 32.2676C81.8982 32.2676 77.7578 28.126 77.7578 23.0364C77.7578 17.9468 81.8986 13.8052 86.989 13.8052C92.0794 13.8052 96.2202 17.9464 96.2202 23.0364C96.2202 28.1264 92.0794 32.2676 86.989 32.2676ZM86.989 17.0052C83.6642 17.0052 80.9578 19.7108 80.9578 23.0364C80.9578 26.362 83.6642 29.0676 86.989 29.0676C90.3138 29.0676 93.0202 26.362 93.0202 23.0364C93.0202 19.7108 90.3138 17.0052 86.989 17.0052Z" fill="#4C241D"/>
<path d="M97.7474 35.32C101.962 35.32 105.379 31.9034 105.379 27.6888C105.379 23.4742 101.962 20.0576 97.7474 20.0576C93.5328 20.0576 90.1162 23.4742 90.1162 27.6888C90.1162 31.9034 93.5328 35.32 97.7474 35.32Z" fill="#BD53B5"/>
<path d="M97.7478 36.9199C92.657 36.9199 88.5166 32.7783 88.5166 27.6887C88.5166 22.5991 92.6574 18.4575 97.7478 18.4575C102.838 18.4575 106.979 22.5991 106.979 27.6887C106.979 32.7783 102.839 36.9199 97.7478 36.9199ZM97.7478 21.6575C94.423 21.6575 91.7166 24.3631 91.7166 27.6887C91.7166 31.0143 94.423 33.7199 97.7478 33.7199C101.073 33.7199 103.779 31.0143 103.779 27.6887C103.779 24.3631 101.073 21.6575 97.7478 21.6575Z" fill="#4C241D"/>
<path d="M96.2943 47.53C100.509 47.53 103.925 44.1134 103.925 39.8988C103.925 35.6842 100.509 32.2676 96.2943 32.2676C92.0797 32.2676 88.6631 35.6842 88.6631 39.8988C88.6631 44.1134 92.0797 47.53 96.2943 47.53Z" fill="#BD53B5"/>
<path d="M96.2947 49.1299C91.2039 49.1299 87.0635 44.9883 87.0635 39.8987C87.0635 34.8091 91.2043 30.6675 96.2947 30.6675C101.385 30.6675 105.526 34.8091 105.526 39.8987C105.526 44.9883 101.385 49.1299 96.2947 49.1299ZM96.2947 33.8675C92.9699 33.8675 90.2635 36.5731 90.2635 39.8987C90.2635 43.2243 92.9699 45.9299 96.2947 45.9299C99.6195 45.9299 102.326 43.2243 102.326 39.8987C102.326 36.5731 99.6195 33.8675 96.2947 33.8675Z" fill="#4C241D"/>
<path d="M77.8314 47.53C82.046 47.53 85.4626 44.1134 85.4626 39.8988C85.4626 35.6842 82.046 32.2676 77.8314 32.2676C73.6168 32.2676 70.2002 35.6842 70.2002 39.8988C70.2002 44.1134 73.6168 47.53 77.8314 47.53Z" fill="#BD53B5"/>
<path d="M77.8318 49.1299C72.741 49.1299 68.6006 44.9883 68.6006 39.8987C68.6006 34.8091 72.7414 30.6675 77.8318 30.6675C82.9222 30.6675 87.063 34.8091 87.063 39.8987C87.063 44.9883 82.9226 49.1299 77.8318 49.1299ZM77.8318 33.8675C74.507 33.8675 71.8006 36.5731 71.8006 39.8987C71.8006 43.2243 74.507 45.9299 77.8318 45.9299C81.1566 45.9299 83.863 43.2243 83.863 39.8987C83.863 36.5731 81.157 33.8675 77.8318 33.8675Z" fill="#4C241D"/>
<path d="M86.9886 50.4348C91.2032 50.4348 94.6198 47.0182 94.6198 42.8036C94.6198 38.589 91.2032 35.1724 86.9886 35.1724C82.774 35.1724 79.3574 38.589 79.3574 42.8036C79.3574 47.0182 82.774 50.4348 86.9886 50.4348Z" fill="#BD53B5"/>
<path d="M86.989 52.0347C81.8982 52.0347 77.7578 47.8931 77.7578 42.8035C77.7578 37.7139 81.8986 33.5723 86.989 33.5723C92.0794 33.5723 96.2202 37.7135 96.2202 42.8035C96.2202 47.8935 92.0794 52.0347 86.989 52.0347ZM86.989 36.7723C83.6642 36.7723 80.9578 39.4779 80.9578 42.8035C80.9578 46.1291 83.6642 48.8347 86.989 48.8347C90.3138 48.8347 93.0202 46.1291 93.0202 42.8035C93.0202 39.4779 90.3138 36.7723 86.989 36.7723Z" fill="#4C241D"/>
<path d="M87.0621 40.1198C90.5967 40.1198 93.4621 37.2544 93.4621 33.7198C93.4621 30.1852 90.5967 27.3198 87.0621 27.3198C83.5275 27.3198 80.6621 30.1852 80.6621 33.7198C80.6621 37.2544 83.5275 40.1198 87.0621 40.1198Z" fill="#FFCE56"/>
<path d="M87.0625 41.7197C82.6517 41.7197 79.0625 38.1305 79.0625 33.7197C79.0625 29.3089 82.6517 25.7197 87.0625 25.7197C91.4733 25.7197 95.0625 29.3089 95.0625 33.7197C95.0625 38.1305 91.4737 41.7197 87.0625 41.7197ZM87.0625 28.9197C84.4157 28.9197 82.2625 31.0729 82.2625 33.7197C82.2625 36.3665 84.4157 38.5197 87.0625 38.5197C89.7093 38.5197 91.8625 36.3665 91.8625 33.7197C91.8625 31.0729 89.7097 28.9197 87.0625 28.9197Z" fill="#4C241D"/>
<path d="M82.9395 62.1988C86.8363 67.7 87.9919 73.5784 85.5211 75.3284C83.0503 77.0788 77.8883 74.038 73.9915 68.5368C70.0947 63.0356 71.4099 55.4072 71.4099 55.4072C71.4099 55.4072 79.0431 56.6976 82.9395 62.1988Z" fill="#A9BA5A"/>
<path d="M83.8677 77.4108C80.5569 77.4108 76.2113 74.4388 72.6849 69.4624C68.4552 63.488 69.7757 55.474 69.8333 55.136C69.9833 54.2672 70.8068 53.6828 71.6768 53.8304C72.0144 53.8876 80.0129 55.3 84.2457 61.274C86.2581 64.1156 87.6581 67.1648 88.1877 69.8616C88.8049 72.9968 88.1861 75.4024 86.4457 76.6352C85.7037 77.16 84.8289 77.4108 83.8677 77.4108ZM72.8256 57.4068C72.7116 59.8036 72.8945 64.22 75.2977 67.6124C79.0369 72.8928 83.2977 74.9412 84.5961 74.0232C85.2181 73.5824 85.3913 72.2248 85.0493 70.4788C84.6101 68.2492 83.3665 65.568 81.6337 63.124C79.2301 59.7316 75.1256 58.0936 72.8256 57.4068Z" fill="#4C241D"/>
<path d="M34.7116 75.3729C39.4828 77.3145 42.644 80.6261 41.7716 82.7693C40.8996 84.9125 36.3244 85.0757 31.5532 83.1341C26.782 81.1925 24.4932 75.7377 24.4932 75.7377C24.4932 75.7377 29.9404 73.4309 34.7116 75.3729Z" fill="#A9BA5A"/>
<path d="M37.81 86.0989C35.6804 86.0989 33.232 85.5441 30.9508 84.6161C25.6244 82.4481 23.1212 76.6045 23.018 76.3561C22.676 75.5437 23.0572 74.6077 23.8696 74.2641C24.118 74.1593 29.9868 71.7249 35.3148 73.8905C40.3444 75.9373 44.6868 79.8521 43.254 83.3725C42.4708 85.2953 40.3724 86.0989 37.81 86.0989ZM26.8036 76.6781C27.7676 78.2517 29.5584 80.5945 32.1568 81.6525C36.8084 83.5461 40.0084 82.8633 40.2912 82.1657C40.574 81.4705 38.7584 78.7469 34.1084 76.8549C31.51 75.7965 28.5912 76.2233 26.8036 76.6781Z" fill="#4C241D"/>
<path d="M50.8981 80.1727C46.1269 82.1143 42.9657 85.4259 43.8381 87.5691C44.7101 89.7123 49.2853 89.8755 54.0565 87.9339C58.8277 85.9923 61.1165 80.5375 61.1165 80.5375C61.1165 80.5375 55.6693 78.2307 50.8981 80.1727Z" fill="#A9BA5A"/>
<path d="M47.7994 90.8989C45.237 90.8989 43.1386 90.0949 42.3574 88.1725C40.9246 84.6521 45.2654 80.7381 50.295 78.6905C55.6214 76.5225 61.4918 78.9585 61.7402 79.0641C62.5526 79.4077 62.9338 80.3437 62.5918 81.1561C62.4886 81.4045 59.9854 87.2481 54.6606 89.4161C52.3794 90.3445 49.9294 90.8989 47.7994 90.8989ZM51.501 81.6545C46.8526 83.5465 45.037 86.2701 45.3214 86.9661C45.6026 87.6613 48.8026 88.3425 53.4542 86.4521C56.0698 85.3873 57.8542 83.0497 58.8106 81.4793C57.0246 81.0241 54.1026 80.5957 51.501 81.6545Z" fill="#4C241D"/>
<path d="M101.105 79.7361C96.8465 84.9617 91.4913 87.6473 89.1441 85.7345C86.7969 83.8217 88.3465 78.0345 92.6053 72.8089C96.8641 67.5833 104.567 66.8105 104.567 66.8105C104.567 66.8105 105.364 74.5101 101.105 79.7361Z" fill="#A9BA5A"/>
<path d="M91.0655 87.9512C89.9279 87.9512 88.9343 87.6264 88.1343 86.974C86.4811 85.628 86.0251 83.1864 86.8515 80.0996C87.5623 77.4448 89.1655 74.4964 91.3655 71.7972C95.9903 66.122 104.066 65.252 104.408 65.2176C105.304 65.1292 106.068 65.7692 106.159 66.6448C106.194 66.9864 106.97 75.0704 102.347 80.7464C100.147 83.4448 97.5827 85.6096 95.1263 86.8416C93.6515 87.5816 92.2767 87.9512 91.0655 87.9512ZM103.024 68.7084C100.684 69.2372 96.4735 70.5944 93.8471 73.8192C91.9551 76.1412 90.5315 78.7316 89.9439 80.9276C89.4831 82.6456 89.5643 84.012 90.1563 84.4932C90.7483 84.9776 92.1047 84.7784 93.6907 83.9816C95.7235 82.9628 97.9735 81.0464 99.8659 78.7244C102.506 75.4848 102.981 71.1004 103.024 68.7084ZM101.106 79.7356H101.122H101.106Z" fill="#4C241D"/>
<path d="M104.662 105.72C104.662 99.5344 99.6477 94.52 93.4621 94.52H35.8621C29.6765 94.52 24.6621 99.5344 24.6621 105.72" fill="#BF7E68"/>
<path d="M104.663 107.32C103.778 107.32 103.063 106.604 103.063 105.72C103.063 100.426 98.7561 96.1199 93.4625 96.1199H35.8625C30.5689 96.1199 26.2625 100.426 26.2625 105.72C26.2625 106.604 25.5469 107.32 24.6625 107.32C23.7781 107.32 23.0625 106.604 23.0625 105.72C23.0625 98.6619 28.8045 92.9199 35.8625 92.9199H93.4625C100.521 92.9199 106.263 98.6619 106.263 105.72C106.263 106.604 105.547 107.32 104.663 107.32Z" fill="#4C241D"/>
<path d="M42.2631 96.12C41.3787 96.12 40.6631 95.4036 40.6631 94.52V64.12C40.6631 63.2364 41.3787 62.52 42.2631 62.52C43.1475 62.52 43.8631 63.2364 43.8631 64.12V94.52C43.8631 95.4036 43.1475 96.12 42.2631 96.12Z" fill="#4C241D"/>
<path d="M46.9736 35.0819C47.2156 39.8463 44.9272 45.7567 42.2804 45.8911C39.6336 46.0255 37.63 40.3327 37.3884 35.5683C37.1468 30.8039 39.0964 26.8327 41.7432 26.6983C44.39 26.5639 46.7316 30.3175 46.9736 35.0819Z" fill="white"/>
<path d="M42.1724 47.4945C37.966 47.4945 36.0256 40.2757 35.7896 35.6501C35.66 33.0781 36.1052 30.6081 37.046 28.6921C38.1368 26.4717 39.7756 25.1961 41.6616 25.1005C45.2352 24.8981 48.2804 29.2669 48.5724 35.0005C48.7004 37.5249 48.1816 40.4553 47.1864 42.8389C45.9756 45.7413 44.2616 47.3929 42.3616 47.4889C42.2972 47.4921 42.2348 47.4945 42.1724 47.4945ZM41.8788 28.2953C41.86 28.2953 41.8428 28.2953 41.824 28.2961C41.1692 28.3297 40.4568 29.0045 39.9176 30.1025C39.224 31.5173 38.8832 33.4797 38.9864 35.4877C39.2428 40.5345 41.2536 44.2941 42.1816 44.2941H42.1988C42.5036 44.2785 43.4004 43.6013 44.2332 41.6065C45.0536 39.6425 45.4816 37.2337 45.3752 35.1637C45.1772 31.2529 43.3472 28.2953 41.8788 28.2953Z" fill="#4C241D"/>
<path d="M46.9736 64.3584C47.2156 59.594 44.9272 53.6836 42.2804 53.5492C39.6336 53.4148 37.63 59.1076 37.3884 63.872C37.1468 68.6364 39.0964 72.6076 41.7432 72.742C44.39 72.8764 46.7316 69.1228 46.9736 64.3584Z" fill="white"/>
<path d="M41.8788 74.3449C41.8068 74.3449 41.7352 74.3433 41.6616 74.3393C39.7756 74.2441 38.1368 72.9681 37.046 70.7477C36.1052 68.8321 35.66 66.3617 35.7896 63.7897C36.0256 59.1649 37.966 51.9453 42.1724 51.9453C42.2348 51.9453 42.2972 51.9469 42.3616 51.9509C44.2616 52.0469 45.9756 53.6985 47.1864 56.6009C48.1816 58.9845 48.7004 61.9149 48.5724 64.4393C48.2864 70.0569 45.366 74.3449 41.8788 74.3449ZM42.1816 55.1465C41.2536 55.1465 39.2424 58.9049 38.9864 63.9529C38.8832 65.9609 39.224 67.9233 39.9176 69.3381C40.4568 70.4357 41.1692 71.1109 41.824 71.1445C43.2864 71.1853 45.174 68.2365 45.3756 64.2773C45.482 62.2069 45.0536 59.7985 44.2336 57.8345C43.4008 55.8401 42.504 55.1625 42.1992 55.1469C42.1928 55.1465 42.188 55.1465 42.1816 55.1465Z" fill="#4C241D"/>
<path d="M27.5424 54.5137C32.3068 54.7557 38.2172 52.4673 38.3516 49.8205C38.486 47.1737 32.7932 45.1701 28.0288 44.9285C23.2644 44.6865 19.2932 46.6365 19.1588 49.2833C19.0244 51.9301 22.778 54.2717 27.5424 54.5137Z" fill="white"/>
<path d="M28.234 56.1307C27.9732 56.1307 27.7152 56.1243 27.4604 56.1111C24.89 55.9815 22.476 55.2875 20.6668 54.1579C18.5684 52.8487 17.4652 51.0883 17.5604 49.2015C17.7432 45.6187 22.3684 43.0235 28.1088 43.3303C32.804 43.5687 40.1696 45.5639 39.9496 49.9015C39.8528 51.8015 38.2012 53.5147 35.2996 54.7263C33.156 55.6223 30.57 56.1307 28.234 56.1307ZM27.2576 46.5091C23.6296 46.5091 20.828 47.9739 20.7576 49.3647C20.7232 50.0187 21.3232 50.7959 22.3608 51.4435C23.6984 52.2771 25.6156 52.8139 27.6232 52.9163C29.7092 53.0179 32.1028 52.5943 34.0668 51.7743C36.0604 50.9415 36.7372 50.0447 36.7528 49.7399C36.7996 48.8203 33.0248 46.7851 27.9464 46.5267C27.7136 46.5143 27.484 46.5091 27.2576 46.5091Z" fill="#4C241D"/>
<path d="M56.8184 54.5142C52.054 54.7562 46.1436 52.4678 46.0092 49.821C45.8748 47.1742 51.5676 45.1706 56.332 44.929C61.0964 44.687 65.0676 46.637 65.202 49.2838C65.3364 51.9306 61.5828 54.2722 56.8184 54.5142Z" fill="white"/>
<path d="M56.1257 56.131C53.7897 56.131 51.2037 55.6226 49.0601 54.727C46.1585 53.5154 44.5069 51.8022 44.4101 49.9022C44.1897 45.5646 51.5553 43.5694 56.2509 43.331C61.9885 43.0262 66.6181 45.6194 66.8009 49.2022C66.8961 51.089 65.7929 52.849 63.6945 54.1586C61.8837 55.2882 59.4697 55.9822 56.8993 56.1118C56.6445 56.125 56.3865 56.131 56.1257 56.131ZM57.1021 46.5094C56.8757 46.5094 56.6457 46.515 56.4129 46.5266C51.3349 46.785 47.5597 48.8202 47.6065 49.7398C47.6221 50.0446 48.2985 50.9414 50.2925 51.7742C52.2549 52.5946 54.6549 53.0186 56.7361 52.9162C58.7441 52.8138 60.6625 52.277 62.0001 51.4434C63.0377 50.7958 63.6377 50.0186 63.6033 49.3646C63.5333 47.9742 60.7317 46.5094 57.1021 46.5094Z" fill="#4C241D"/>
<path d="M35.0041 36.0898C38.5937 39.2318 41.2453 44.9882 39.4997 46.9826C37.7541 48.977 32.2721 46.4538 28.6825 43.3114C25.0929 40.169 23.5981 36.0054 25.3437 34.0114C27.0893 32.0174 31.4145 32.9474 35.0041 36.0898Z" fill="white"/>
<path d="M37.6143 49.2951C36.7051 49.2951 35.5863 49.0903 34.2143 48.5695C32.0519 47.7467 29.5895 46.2311 27.6283 44.5155C25.6923 42.8203 24.2267 40.7803 23.5063 38.7719C22.6703 36.4439 22.8955 34.3791 24.1407 32.9579C25.3827 31.5375 27.3999 31.0415 29.8187 31.5603C31.9047 32.0095 34.1203 33.1899 36.0579 34.8859C37.9595 36.5507 39.7031 38.9615 40.7235 41.3359C41.9643 44.2259 41.9563 46.6055 40.7031 48.0367C40.1363 48.6855 39.1847 49.2951 37.6143 49.2951ZM28.0487 34.5619C27.3691 34.5619 26.8379 34.7339 26.5487 35.0651C26.1159 35.5579 26.1051 36.5395 26.5191 37.6899C27.0503 39.1727 28.2239 40.7827 29.7363 42.1071C31.4255 43.5859 33.5255 44.8827 35.3519 45.5775C37.1955 46.2783 38.1347 46.1175 38.2955 45.9283C38.4971 45.6995 38.6347 44.5839 37.7831 42.5979C36.9423 40.6415 35.5095 38.6587 33.9503 37.2931C33.9503 37.2931 33.9503 37.2931 33.9487 37.2931C32.4379 35.9687 30.6863 35.0195 29.1455 34.6883C28.7519 34.6035 28.3831 34.5619 28.0487 34.5619Z" fill="#4C241D"/>
<path d="M56.0278 56.4652C52.775 52.9756 46.9382 50.5052 44.9998 52.3124C43.0614 54.1196 45.7546 59.52 49.0078 63.0096C52.261 66.4992 56.4694 67.8628 58.4078 66.0556C60.3462 64.2484 59.281 59.9548 56.0278 56.4652Z" fill="white"/>
<path d="M56.1614 68.4366C53.5786 68.4366 50.441 66.8946 47.8366 64.1014C44.6334 60.6622 40.7334 54.1038 43.907 51.143C45.3006 49.843 47.6822 49.765 50.6054 50.9134C53.0102 51.8578 55.4742 53.5258 57.1974 55.375C61.1114 59.5726 62.1222 64.779 59.5006 67.2258C58.6206 68.045 57.4614 68.4366 56.1614 68.4366ZM46.8926 53.3078C46.455 53.3078 46.1878 53.3922 46.0894 53.483C45.4174 54.111 46.7114 58.1994 50.177 61.9198C52.8802 64.819 56.2378 65.8954 57.3178 64.8862C58.399 63.8778 57.5598 60.4558 54.857 57.5574C54.857 57.5566 54.857 57.5566 54.857 57.5566C53.4446 56.0402 51.4178 54.6706 49.4366 53.8926C48.3034 53.4474 47.4566 53.3078 46.8926 53.3078Z" fill="#4C241D"/>
<path d="M35.0041 63.7256C38.5937 60.5836 41.2453 54.8272 39.4997 52.8328C37.7541 50.8384 32.2721 53.3616 28.6825 56.504C25.0929 59.646 23.5981 63.81 25.3437 65.804C27.0893 67.7984 31.4145 66.868 35.0041 63.7256Z" fill="white"/>
<path d="M28.0267 68.457C26.4079 68.457 25.0627 67.9118 24.1407 66.8586C22.8955 65.4366 22.6703 63.3718 23.5063 61.0446C24.2283 59.0362 25.6923 56.9962 27.6299 55.301C29.5891 53.5854 32.0519 52.0698 34.2143 51.247C37.9551 49.8258 39.8063 50.755 40.7051 51.7798C41.9567 53.211 41.9643 55.5906 40.7239 58.4806C39.7035 60.8542 37.9599 63.265 36.0583 64.9298C34.1207 66.625 31.9051 67.8062 29.8191 68.2554C29.1923 68.3898 28.5939 68.457 28.0267 68.457ZM37.6095 53.7258C37.1219 53.7258 36.3767 53.8486 35.3515 54.2382C33.5251 54.9326 31.4251 56.2298 29.7375 57.7086C28.2235 59.0322 27.0499 60.6422 26.5187 62.125C26.1047 63.2766 26.1155 64.2578 26.5483 64.7506C26.9795 65.2434 27.9467 65.3834 29.1451 65.127C30.6859 64.795 32.4371 63.8458 33.9483 62.5214H33.9499C35.5091 61.1558 36.9419 59.173 37.7827 57.2174C38.6343 55.2314 38.4967 54.1158 38.2967 53.887C38.2235 53.8038 37.9983 53.7258 37.6095 53.7258Z" fill="#4C241D"/>
<path d="M56.0287 43.3504C52.7759 46.84 46.9391 49.3104 45.0007 47.5032C43.0623 45.696 45.7555 40.2956 49.0087 36.806C52.2619 33.3164 56.4703 31.9528 58.4087 33.76C60.3471 35.5672 59.2819 39.8608 56.0287 43.3504Z" fill="white"/>
<path d="M46.9123 49.7231C45.7403 49.7231 44.6983 49.4083 43.9091 48.6731C40.7339 45.7123 44.6327 39.1535 47.8371 35.7151C51.7511 31.5175 56.8715 30.1423 59.4995 32.5895C62.1231 35.0363 61.1119 40.2427 57.1979 44.4411C54.6919 47.1299 50.2731 49.7231 46.9123 49.7231ZM56.1511 34.5599C54.6263 34.5599 52.2167 35.7099 50.1775 37.8967C46.7119 41.6171 45.4183 45.7051 46.0899 46.3327C46.9275 47.1083 51.7023 45.6435 54.8571 42.2599C57.5603 39.3599 58.3991 35.9387 57.3179 34.9303C57.0511 34.6823 56.6479 34.5599 56.1511 34.5599Z" fill="#4C241D"/>
<path d="M42.2295 54.519C44.8798 54.519 47.0283 52.3705 47.0283 49.7202C47.0283 47.0699 44.8798 44.9214 42.2295 44.9214C39.5792 44.9214 37.4307 47.0699 37.4307 49.7202C37.4307 52.3705 39.5792 54.519 42.2295 54.519Z" fill="#FFCE56"/>
<path d="M42.2301 56.1186C38.7005 56.1186 35.8301 53.2482 35.8301 49.7202C35.8301 46.1922 38.7005 43.3218 42.2301 43.3218C45.7581 43.3218 48.6285 46.1922 48.6285 49.7202C48.6285 53.2482 45.7585 56.1186 42.2301 56.1186ZM42.2301 46.5218C40.4661 46.5218 39.0301 47.957 39.0301 49.7202C39.0301 51.4834 40.4661 52.9186 42.2301 52.9186C43.9941 52.9186 45.4285 51.4834 45.4285 49.7202C45.4285 47.957 43.9945 46.5218 42.2301 46.5218Z" fill="#4C241D"/>
<path d="M45.8657 103.001C46.8103 103.001 47.5761 102.236 47.5761 101.291C47.5761 100.346 46.8103 99.5806 45.8657 99.5806C44.921 99.5806 44.1553 100.346 44.1553 101.291C44.1553 102.236 44.921 103.001 45.8657 103.001Z" fill="#4C241D"/>
<path d="M33.0659 104.601C34.0105 104.601 34.7763 103.836 34.7763 102.891C34.7763 101.946 34.0105 101.181 33.0659 101.181C32.1212 101.181 31.3555 101.946 31.3555 102.891C31.3555 103.836 32.1212 104.601 33.0659 104.601Z" fill="#4C241D"/>
<path d="M61.8657 104.601C62.8103 104.601 63.5761 103.836 63.5761 102.891C63.5761 101.946 62.8103 101.181 61.8657 101.181C60.921 101.181 60.1553 101.946 60.1553 102.891C60.1553 103.836 60.921 104.601 61.8657 104.601Z" fill="#4C241D"/>
<path d="M73.0659 101.401C74.0105 101.401 74.7763 100.635 74.7763 99.6909C74.7763 98.7462 74.0105 97.9805 73.0659 97.9805C72.1212 97.9805 71.3555 98.7462 71.3555 99.6909C71.3555 100.635 72.1212 101.401 73.0659 101.401Z" fill="#4C241D"/>
<path d="M82.6655 104.601C83.6101 104.601 84.3759 103.836 84.3759 102.891C84.3759 101.946 83.6101 101.181 82.6655 101.181C81.7208 101.181 80.9551 101.946 80.9551 102.891C80.9551 103.836 81.7208 104.601 82.6655 104.601Z" fill="#4C241D"/>
<path d="M95.4653 101.401C96.4099 101.401 97.1757 100.635 97.1757 99.6909C97.1757 98.7462 96.4099 97.9805 95.4653 97.9805C94.5207 97.9805 93.7549 98.7462 93.7549 99.6909C93.7549 100.635 94.5207 101.401 95.4653 101.401Z" fill="#4C241D"/>
</svg>
